<svg xmlns="http://www.w3.org/2000/svg" width="53" height="53"><path d="M18.6 41.6l-7.9 4.3c-.5.3-.9.6-1.3.9C14 50.7 20 53 26.5 53s12.4-2.3 17-6.1c-.4-.4-.9-.7-1.4-.9l-8.5-4.2c-1.1-.5-1.8-1.7-1.8-2.9v-3.3c.2-.3.5-.6.8-1 1.2-1.6 2-3.4 2.6-5.3a2.58 2.58 0 001.9-2.5v-3.5c0-.8-.3-1.5-.9-2V16s1.1-8-9.8-8-9.8 8-9.8 8v5.1c-.5.5-.9 1.2-.9 2v3.5c0 .9.5 1.8 1.2 2.2.9 3.9 3.2 6.6 3.2 6.6v3.2c.2 1.3-.5 2.4-1.5 3z" fill="#cecece"/><path d="M27 0C12.3-.2.3 11.4 0 26c-.1 8.3 3.6 15.8 9.4 20.7.4-.3.8-.6 1.3-.9l7.9-4.3c1-.6 1.7-1.7 1.7-2.8v-3.2s-2.3-2.8-3.2-6.6c-.7-.5-1.2-1.3-1.2-2.2v-3.5c0-.8.3-1.5.9-2V16s-1.1-8 9.8-8 9.8 8 9.8 8v5.1c.5.5.9 1.2.9 2v3.5a2.58 2.58 0 01-1.9 2.5c-.6 1.9-1.5 3.7-2.6 5.3-.3.4-.6.8-.8 1v3.3c0 1.2.7 2.3 1.8 2.9l8.5 4.2c.5.3 1 .6 1.4.9C49.2 42.1 52.9 35 53 27 53.2 12.3 41.6.3 27 0z" fill="#fff"/></svg>