<svg xmlns="http://www.w3.org/2000/svg" width="466.7" height="474.9" fill="#abb8c3" xmlns:v="https://vecta.io/nano"><path d="M328 149.2c32 43 76.3 55.2 105.7 89.6 29.4 34.5 44 91.1 23.2 127.7-20.7 36.7-76.6 53.4-130.2 70-53.6 16.7-104.8 33.3-151 22.4-46.2-10.8-87.4-49.1-112.4-95.3-24.9-46.3-33.5-100.4-24.1-151.1 9.3-50.7 36.5-97.9 75.8-139.6 39.2-41.8 90.4-78.1 125.9-59.3 35.4 18.7 55.1 92.6 87.1 135.6z"/><path d="M29.3 267c0-53.9-33.4-92.9-28.9-119.4 4.5-26.4 46.9-40.3 93.4-70.2S191 1.7 242.8 0c51.9-1.7 104.9 40.8 118.3 92.3s-12.9 112.1-44.5 150.8c-31.6 38.5-68.3 54.8-97.4 94.3-29 39.3-50.1 101.7-91.5 125.8-41.5 24.1-103.2 10-117.4-31.6-14.2-41.7 19-110.6 19-164.6z" opacity=".3"/></svg>