<svg xmlns="http://www.w3.org/2000/svg" width="411.8" height="561.4" fill="#abb8c3" xmlns:v="https://vecta.io/nano"><path d="M254.6 264.2c30.3 41.1 61.9 64.5 66.2 96 4.4 31.5-18.8 71-73.3 117S107.2 575.4 68 558 36.2 453.6 25.7 384.9s-39-119-18.5-162.5c20.3-43.6 89.5-80.2 138.7-69.2 49.1 11.1 78.3 70 108.7 111z" opacity=".3"/><path d="M41.2 292.5C13.8 263.4 18 203 34 136.7 49.9 70.5 77.6-1.9 112.9 0c35.3 2 78.3 78.2 141.7 120.3 63.4 42.2 147.1 50.2 156.4 74.4 9.2 24-56.2 64.1-106.1 87.3-50 23.1-84.3 29.3-131 33.4-46.5 4.1-105.4 6.2-132.7-22.9z"/></svg>