<svg xmlns="http://www.w3.org/2000/svg" width="485.3" height="338" fill="#abb8c3" xmlns:v="https://vecta.io/nano"><path d="M337.5 96.2c36.4 9.4 85 10.5 114.7 35.6s40.4 74.3 28 116.9c-12.5 42.8-48 79-86.7 82.5-38.7 3.6-80.4-25.6-108.7-46.6s-43.1-34-90.7-46.7c-47.6-12.8-128.2-25.4-133.5-45.2-5.2-19.7 64.8-46.5 109.5-71.2 44.6-24.7 63.6-47.3 85.3-49.8 21.6-2.5 45.7 15.1 82.1 24.5z"/><path d="M387.5 20.6c35.1 21.5 50.9 74 32.8 111.6-18.1 37.7-70.2 60.6-98.6 85.1-28.5 24.5-33.3 50.7-47 58.1-13.8 7.5-36.3-3.8-69.8-6.6-33.6-2.9-78 2.8-121.5-18.4S-2.6 181.3.1 136.9C2.7 92.6 50.5 51.8 98.6 32.6s96.5-16.8 147.9-20.4c51.4-3.5 105.8-13.1 141 8.4z" opacity=".3"/></svg>