<svg xmlns="http://www.w3.org/2000/svg" width="450" height="584.3" fill="#abb8c3" xmlns:v="https://vecta.io/nano"><path d="M393 189c36 13 51.1 68 37.4 110.3s-56.1 72-79 114.4c-22.8 42.3-26 97.4-56.5 132.3s-88.3 49.6-127.6 28.6c-39.2-20.9-59.9-77.5-59.8-123.7 0-46.1 20.7-81.8 30.5-116.5 9.7-34.6 8.4-68.1 24.2-84.6 15.7-16.6 48.5-16.2 93.3-30.5S357.1 176 393 189z"/><path d="M310.7 43c47.7 18.6 111.6 39.5 131.8 79.2 20.2 39.8-3.1 98.3-35.3 149.6-32.1 51.4-73.1 95.5-126 120.9S163.5 424.6 105 406.5C46.5 388.3-5.6 345.4.5 297.3 6.7 249.2 71.1 196 93.2 146.5 115.3 96.9 95 51.2 105.7 26 116.4.9 157.9-3.5 194.6 2.3c36.6 5.9 68.3 22.1 116.1 40.7z" opacity=".3"/></svg>