<svg xmlns="http://www.w3.org/2000/svg" width="570" height="286.8" fill="#abb8c3" xmlns:v="https://vecta.io/nano"><path d="M427.3 40c48.9 5.3 115.2 21.6 135.6 53.3 20.3 31.8-5.3 79-40.3 116.5-35 37.6-79.4 65.4-126.9 74-47.6 8.5-98.3-2.3-134.9-22.4s-59-49.6-84.1-80c-25.1-30.5-53-61.7-56.7-97.4s16.8-75.7 53.4-82.8c36.6-7 89.3 19.1 131.4 29.3 42.1 10 73.6 4.3 122.5 9.5z"/><path d="M320.5 5.1c37.3 11.3 63.4 44.3 47.8 69.4-15.5 25-72.7 42.2-98.7 70.1-25.9 27.9-20.5 66.7-44.2 93.5-23.6 26.7-76.3 41.6-100.5 24S105 194.5 81.1 158.9 5.1 102.2.4 81.1c-4.7-21 37.9-41.8 76.8-52.9S151.3 15.8 193 9.9c41.8-5.7 90.2-16.2 127.5-4.8z" opacity=".3"/></svg>