<svg xmlns="http://www.w3.org/2000/svg" width="334" height="110"><path fill="#ff302f" d="M297.8 67.2l7.8 5.2c-2.5 3.7-8.6 10.1-19 10.1-13 0-22.6-10-22.6-22.8 0-13.6 9.8-22.8 21.6-22.8 11.9 0 17.7 9.4 19.5 14.5l1 2.6-30.5 12.6c2.3 4.6 5.9 6.9 11.1 6.9 5 0 8.5-2.5 11.1-6.3zm-24-8.3l20.4-8.5c-1.1-2.8-4.5-4.9-8.5-4.9-5 .1-12.1 4.6-11.9 13.4z"/><path fill="#20b15a" d="M249.2 13.6h9.8v66.8h-9.8V13.6z"/><path fill="#3686f7" d="M233.6 38.6h9.5v40.6c0 16.8-9.9 23.8-21.7 23.8-11.1 0-17.7-7.4-20.2-13.5l8.7-3.6c1.6 3.7 5.4 8.1 11.5 8.1 7.5 0 12.2-4.7 12.2-13.4v-3.3h-.3c-2.3 2.7-6.6 5.2-12 5.2-11.4 0-21.9-9.9-21.9-22.8s10.5-22.9 21.9-22.9c5.4 0 9.8 2.4 12 5.1h.3v-3.3zm.7 21.1c0-8.1-5.4-13.9-12.2-13.9-6.9 0-12.7 5.9-12.7 13.9s5.8 13.7 12.7 13.7c6.9.1 12.2-5.7 12.2-13.7z"/><path fill="#ff302f" d="M145.4 59.5c0 13.2-10.2 22.8-22.8 22.8s-22.8-9.7-22.8-22.8c0-13.2 10.2-22.9 22.8-22.9s22.8 9.7 22.8 22.9zm-10 0c0-8.2-5.9-13.8-12.8-13.8s-12.8 5.6-12.8 13.8c0 8.1 5.9 13.8 12.8 13.8 6.9.1 12.8-5.6 12.8-13.8z"/><path fill="#ffba40" d="M195.3 59.6c0 13.2-10.2 22.8-22.8 22.8s-22.8-9.7-22.8-22.8c0-13.2 10.2-22.8 22.8-22.8 12.5 0 22.8 9.6 22.8 22.8zm-10.1 0c0-8.2-5.9-13.8-12.8-13.8s-12.8 5.6-12.8 13.8c0 8.1 5.9 13.8 12.8 13.8 6.9.1 12.8-5.7 12.8-13.8z"/><path fill="#3686f7" d="M62.3 72.5C48 72.5 36.8 61 36.8 46.6S48 20.7 62.3 20.7c7.7 0 13.4 3 17.5 6.9l6.9-6.9C80.8 15.2 73.1 11 62.3 11c-19.6 0-36.1 16-36.1 35.6s16.5 35.6 36.1 35.6c10.6 0 18.6-3.5 24.8-10 6.4-6.4 8.4-15.4 8.4-22.8 0-2.3-.3-4.6-.6-6.4H62.3v9.5h23.3c-.7 5.9-2.6 10-5.3 12.8-3.5 3.4-8.7 7.2-18 7.2z"/></svg>