<svg xmlns="http://www.w3.org/2000/svg" width="334" height="110"><path fill="#5f5f5f" d="M16.3 63.5v-28a1.58 1.58 0 011.6-1.6h8.3a1.58 1.58 0 011.6 1.6v27.7C27.8 71.6 32 76 38.9 76S50 71.8 50 63.6V35.5a1.58 1.58 0 011.6-1.6h8.3a1.58 1.58 0 011.6 1.6v27.6c0 15.7-8.8 23.4-22.7 23.4-14 0-22.5-7.8-22.5-23zm57.9-28a1.58 1.58 0 011.6-1.6h19.6c12.3 0 19.8 7.3 19.8 17.9v.2c0 11.9-9.3 18.1-20.9 18.1h-8.7v14a1.58 1.58 0 01-1.6 1.6h-8.3a1.58 1.58 0 01-1.6-1.6V35.5zM94.5 60c5.7 0 9-3.4 9-7.8v-.1c0-5.1-3.6-7.8-9.3-7.8h-7.3a1.58 1.58 0 00-1.6 1.6v12.7a1.58 1.58 0 001.6 1.6h7.6V60zm28.3-.1v-.2c0-14.7 11-26.7 27-26.7 9.1 0 13.9 3 18.8 6.6.7.5.8 1.5.3 2.2l-4.6 6.6c-.5.7-1.5.8-2.2.4-3.9-2.7-7.8-5.2-12.5-5.2-8.7 0-15 7.2-15 16.1v.3c0 8.9 7.2 16.5 16.1 16.1 4.8-.2 8-1.7 11.2-4.8.6-.6 1.5-.6 2.1-.1l5.5 4.8c.6.6.7 1.6.1 2.2-4.7 5.3-11 8.4-20.4 8.4-15 0-26.4-11.9-26.4-26.7zm107 16.6l5.4-5.1c.6-.6 1.6-.5 2.2 0 3.9 3.7 8.5 4.9 13.9 4.9 4.6 0 7.5-1.9 7.5-4.8v-.2c0-2.9-1.8-4.3-10.5-6.6-10.5-2.7-17.2-5.5-17.2-15.8v-.2c0-9.4 7.5-15.6 18.1-15.6 7 0 13 2.1 18 5.6.7.5.8 1.5.4 2.2l-4.2 6.1c-.5.7-1.4.8-2.1.4-4.1-2.7-8.2-4.2-12.2-4.2-4.3 0-6.6 2-6.6 4.5v.2c0 3.4 2.2 4.5 11.1 6.8 10.5 2.8 16.4 6.5 16.4 15.5v.2c0 10.3-7.8 16.1-19 16.1-7.3 0-15.8-2.1-21.2-7.6-.7-.8-.7-1.8 0-2.4zm48.8-41a1.58 1.58 0 011.6-1.6H316a1.58 1.58 0 011.6 1.6v7a1.58 1.58 0 01-1.6 1.6h-24.7a1.58 1.58 0 00-1.6 1.6V53a1.58 1.58 0 001.6 1.6h21.3a1.58 1.58 0 011.6 1.6v7a1.58 1.58 0 01-1.6 1.6h-21.3a1.58 1.58 0 00-1.6 1.6v7.8a1.58 1.58 0 001.6 1.6h25a1.58 1.58 0 011.6 1.6v7a1.58 1.58 0 01-1.6 1.6H280a1.58 1.58 0 01-1.6-1.6V35.5z"/><linearGradient id="A" gradientUnits="userSpaceOnUse" x1="199.451" y1="22.998" x2="199.451" y2="63.917"><stop offset="0" stop-color="#487bf6"/><stop offset="1" stop-color="#0093cb"/></linearGradient><path fill="url(#A)" d="M197.5 24l-27.2 40.4c-.7 1-.4 2.4.5 3.2l4.3 3.4c1 .7 2.3.7 3.2-.1l16.9-14.8c2.3-2.1 5.7-2.1 8 0l17 14.9c.9.8 2.3.9 3.2.1l4.5-3.4c1-.8 1.2-2.1.5-3.2-5.3-8.3-21.5-32.1-27.2-40.4-.6-1.5-2.7-1.5-3.7-.1z"/></svg>