<svg xmlns="http://www.w3.org/2000/svg" width="334" height="110"><path fill="#4a4a55" d="M112.3 76.3a16.51 16.51 0 01-9.4-2.6c-2.6-1.7-4.5-4.3-5.5-7.2l5.7-2.1c.8 1.8 2.1 3.4 3.7 4.5 1.7 1.1 3.6 1.7 5.6 1.7 1.9.1 3.8-.5 5.4-1.6 1.4-1.1 2.1-2.9 2-4.7 0-.8-.2-1.6-.6-2.4-.3-.7-.7-1.3-1.3-1.8-.6-.6-1.4-1.1-2.2-1.4l-2.4-1.1c-.6-.3-1.6-.6-2.8-1-1.6-.5-2.7-1-3.5-1.3-1.1-.4-2.1-1-3.1-1.5-1.1-.6-2-1.3-2.8-2.2-.7-.8-1.3-1.8-1.7-2.8-1.6-4-.5-8.6 2.7-11.5 2.3-2.1 5.5-3.1 9.5-3.1 3.3 0 6.1.7 8.2 2.2 2.1 1.4 3.6 3.5 4.3 5.9l-5.6 1.9c-.6-1.3-1.5-2.3-2.7-3a8.6 8.6 0 00-4.7-1.1c-1.6-.1-3.2.4-4.6 1.3a4.6 4.6 0 00-1.7 3.6c0 1.1.5 2.1 1.3 2.8.8.8 1.7 1.4 2.7 1.8.9.4 2.3.9 4.2 1.6 1.2.4 2 .7 2.6 1 .6.2 1.4.6 2.5 1.1.9.4 1.7.8 2.5 1.4a16.32 16.32 0 012 1.7c.7.6 1.3 1.3 1.8 2.1s.8 1.7 1 2.6c.3 1.1.4 2.2.4 3.3 0 3.8-1.3 6.8-3.9 8.9-2.2 1.9-5.6 3-9.6 3zm37.2-.7l-14-40.7h6.5l9.2 28.4c.5 1.5.9 3.1 1.3 4.7.3-1.6.8-3.1 1.3-4.7l9.1-28.4h6.5l-13.9 40.7h-6zm32.3 0V34.9H207v5.7h-19.2v11.2h12.4v5.7h-12.4v12.4h20.5v5.7h-26.5zm41.9 0V34.9h6v34.9h19.9v5.8h-25.9zm48.8-34.9v34.9h-6V40.7H255v-5.8h29v5.8h-11.5zm24 34.9V34.9h25.2v5.7h-19.2v11.2h12.4v5.7h-12.4v12.4H323v5.7h-26.5z"/><path fill="#ff3e00" d="M69.8 27.1c-7-10.1-21.1-13.2-31.2-6.7L20.8 31.7c-4.9 3.1-8.2 8-9.2 13.7-.8 4.7-.1 9.6 2.1 13.8-1.5 2.3-2.6 4.9-3.1 7.6-1 5.8.3 11.7 3.7 16.5 7.1 10.2 21.1 13.2 31.2 6.7l17.8-11.3c4.9-3.1 8.2-8 9.2-13.7.8-4.7.1-9.6-2.1-13.8 1.5-2.3 2.6-4.9 3.1-7.6 1.1-5.8-.2-11.7-3.7-16.5"/><path fill="#fff" d="M36.9 84.3c-5.7 1.5-11.8-.8-15.2-5.6-2-2.9-2.9-6.4-2.2-9.9.1-.6.2-1.1.4-1.7l.3-1 .9.7c2.1 1.5 4.5 2.7 7 3.5l.7.2-.1.7c-.1.9.2 1.9.7 2.6 1 1.5 2.8 2.1 4.6 1.7.4-.1.8-.3 1.1-.5l17.8-11.3a3.94 3.94 0 001.7-2.5c.2-1-.1-2.1-.7-3-1-1.5-2.8-2.1-4.6-1.7-.4.1-.8.3-1.1.5l-6.8 4.3c-1.1.7-2.3 1.2-3.6 1.6-5.7 1.5-11.8-.8-15.2-5.6-2-2.9-2.9-6.4-2.2-9.9.6-3.4 2.6-6.4 5.5-8.2l17.8-11.3c1.1-.7 2.3-1.2 3.6-1.6 5.7-1.5 11.8.8 15.2 5.6 2 2.9 2.9 6.4 2.2 9.9-.1.6-.2 1.1-.4 1.7l-.3 1-.9-.7c-2.1-1.5-4.5-2.7-7-3.5l-.6-.3.1-.7c.1-.9-.2-1.9-.7-2.6-1-1.5-2.8-2.1-4.6-1.7-.4.1-.8.3-1.1.5L31.3 46.8a3.94 3.94 0 00-1.7 2.5c-.2 1 .1 2.1.7 3 1 1.5 2.8 2.1 4.6 1.7.4-.1.8-.3 1.1-.5l6.8-4.3c1.1-.7 2.3-1.2 3.6-1.6 5.7-1.5 11.8.8 15.2 5.6 2 2.9 2.9 6.4 2.2 9.9-.6 3.4-2.6 6.4-5.5 8.2L40.5 82.7c-1.1.7-2.4 1.2-3.6 1.6"/></svg>