<svg xmlns="http://www.w3.org/2000/svg" width="334" height="110"><path fill="#82b541" d="M46.68 29.147c-1.62-.9-6.264-.343-11.84 1.383-9.76 6.672-18 16.502-18.575 32.288-.105.377-1.067-.05-1.258-.168-2.636-5.052-3.68-10.372-1.48-18.047.4-.683-.93-1.524-1.172-1.284-.483.484-2.497 2.63-3.835 4.95-6.63 11.502-2.294 26.24 9.306 32.688 11.598 6.46 26.243 2.293 32.7-9.308 7.47-13.4.534-40.055-3.846-42.5z"/><path d="M88.193 35.573c-13.75 0-23.733 10.223-23.733 24.308 0 14.2 9.956 24.12 24.212 24.12 7.2 0 12.902-2.252 17.436-6.887 1.354-1.462 1.5-2.87 1.5-3.4 0-2.296-1.708-3.964-4.06-3.964-1.186 0-2.178.448-3.316 1.5-2.567 2.392-5.948 4.836-11.56 4.836-7.803 0-14.15-5.86-14.55-13.382h31.058c3.377 0 5.018-1.58 5.018-4.826 0-.956 0-1.646-.192-3.007-1.673-12.076-9.827-19.286-21.812-19.286l-.002-.001zm0 7.54c7.457 0 12.24 4.752 12.536 12.42H74.133c.698-7.097 6.7-12.42 14.06-12.42zm51.662-7.54c-6.247 0-12.432 3.592-14.848 8.58V41.07c0-4.776-3.702-5.018-4.443-5.018-2.193 0-4.537 1.318-4.537 5.018v37.237c0 4.96 3.94 5.2 4.73 5.2s4.73-.25 4.73-5.2v-19.96c0-8.685 4.922-14.752 11.968-14.752 6.825 0 10.144 4.48 10.144 13.695V78.3c0 4.96 3.942 5.2 4.73 5.2s4.73-.25 4.73-5.2v-24c0-9.06-4.52-18.742-17.206-18.742v-.003zm60.015.48c-2.186 0-3.772 1.275-4.716 3.784L182.2 72.387l-12.845-32.55c-1.006-2.547-2.58-3.784-4.812-3.784-2.608 0-4.73 2.035-4.73 4.538 0 .62.07 1.423.594 2.677L175.3 78.392c1.773 4.237 4.688 5.126 6.823 5.126s5.05-.9 6.827-5.124l14.972-35.32c.5-1.24.6-2.15.6-2.58 0-2.532-1.994-4.442-4.634-4.443zm27.5-.48c-6.05 0-11.687 1.685-15.867 4.742-1.418.978-2.108 2.198-2.108 3.733 0 2.113 1.613 3.77 3.676 3.77.892 0 1.9-.355 2.807-.997 3.594-2.396 6.97-3.513 10.626-3.513 6.995 0 11 3.557 11 9.76v1.028C221.812 54.113 205.84 56 205.84 69.67c0 9.832 8.402 14.234 16.73 14.234 6.63 0 11.927-2.627 15.325-7.603v2.392c0 3.563 2.392 4.826 4.445 4.826.432 0 4.25-.136 4.25-4.826V53.64c0-11.316-7.187-18.07-19.22-18.07v.003zm8.155 25.488h2v2.18c0 7.97-5.076 13.122-12.93 13.122-2.132 0-9.1-.496-9.1-6.885 0-7.545 11.43-8.416 20.027-8.416zm35.707-16.41c4.14 0 4.35-3.22 4.35-3.866 0-1.915-1.143-3.963-4.35-3.963h-8.512v-8.6c0-3.846-2.495-5.2-4.634-5.2-.8 0-4.73.25-4.73 5.2v40.885c0 9.435 4.654 14.422 13.46 14.422 2.28 0 4.5-.403 5.95-1.08 1.665-.83 2.62-2.197 2.62-3.746 0-2.186-1.586-3.772-3.772-3.772-.422 0-1.023.105-1.685.295-.8.203-1.36.28-1.96.28-3.583 0-5.25-2.34-5.25-7.362V44.645l8.512.004zm31.28-9.077c-14.3 0-24.7 10.142-24.7 24.115 0 6.803 2.516 13.003 7.08 17.458 4.53 4.42 10.784 6.853 17.6 6.853 14.13 0 24.787-10.45 24.787-24.3 0-13.974-10.427-24.116-24.788-24.116zm0 40.403c-9.813 0-14.944-8.195-14.944-16.3 0-11.124 7.747-16.2 14.944-16.2s14.944 5.066 14.944 16.2c0 11.193-7.746 16.3-14.944 16.3z"/></svg>