<svg xmlns="http://www.w3.org/2000/svg" width="334" height="110"><path fill="#f60" d="M293.3 81c-.7 3.4-4.2 6.1-7.6 6.1H32.3c-3.5 0-5.6-2.7-4.9-6.1l11.7-50.9c.9-3.4 4.2-6.1 7.7-6.1H300c3.5 0 5.6 2.7 4.9 6.1L293.3 81"/><g fill="#fff"><path d="M141.2 47.6l-5.6 26.6h-26.1c-2.9 0-5.1-1.1-6.7-3.5s-2-5.1-1.4-8.1c.6-3.1 2.2-5.7 4.7-8.1 2.6-2.4 5.4-3.5 8.2-3.5h17l.6-2.9c.1-.7 0-1.5-.4-2-.4-.6-1-.9-1.7-.9h-22.5l2-9.6h23c3.1 0 5.6 1.1 7.4 3.6 1.6 2.3 2.3 5.1 1.5 8.4zm-27 11.1c-.7 0-1.5.2-2.1.9-.6.6-1.1 1.2-1.2 2-.1.4-.1.7 0 1.1a2.47 2.47 0 00.4.9c.2.2.5.5.7.6s.6.2 1 .2h15.6l1.2-5.7h-15.6zm49.7-3.9l8.4 19.3h-11.7l-4.2-11.2-9 11.2h-11.6l16.6-19.3-8.5-19.2h11.7l4.2 11.2 9-11.2h11.7l-16.6 19.2z"/><path d="M206.1 45.2h-17.3c-.9 0-1.7.4-2.5 1-.7.6-1.2 1.5-1.5 2.4L182 61c-.2 1-.1 1.7.4 2.4.5.6 1.2 1 2.1 1h19.7l-2.1 9.6h-20.6c-3.1 0-5.6-1.1-7.4-3.5-1.7-2.4-2.2-5.2-1.6-8.5l3.1-14.5c.7-3.2 2.4-6.1 5.1-8.5s5.7-3.6 8.9-3.6H208l-1.9 9.8zm40.4 9.5c1-4.9 0-9.7-3-13.3-2.9-3.6-7.5-5.7-12.5-5.7h-17.6l-8.2 38.5h21c9.2-.6 17.7-7.9 19.7-17l.6-2.5zm-9.6-2.1l-.5 2.5c-1 4.9-6.4 9.2-11.5 9.2h-7.5l4-19h9.6c2 0 3.7.7 4.9 2 1.1 1.4 1.4 3.3 1 5.3zm49.4-5l-5.6 26.6h-9.1l5.5-25.6c.1-.5.1-.9 0-1.2-.1-.4-.2-.7-.5-1.1-.2-.2-.5-.5-.9-.7-.4-.1-.7-.2-1.1-.2h-15.2l-6.2 28.9H244l8.2-38.5h25.2c3.1 0 5.6 1.1 7.4 3.6 1.6 2.1 2.1 4.9 1.5 8.2zM98.9 40.2c-2.4-3-6.1-4.6-10.1-4.6H50.3l4.6 9.9-6.1 28.7h10.1L65 45.5h8.6l-6.1 28.7h10.1l6.1-28.7h5.1c1.1 0 2 .4 2.5 1s.7 1.6.5 2.6l-5.4 25.1h10.1l4.9-23c.8-4-.1-8-2.5-11z"/></g></svg>