<svg xmlns="http://www.w3.org/2000/svg" width="334" height="110"><path fill="#5468ff" d="M26.4 18H81a9.82 9.82 0 019.8 9.8v54.6a9.82 9.82 0 01-9.8 9.8H26.4a9.82 9.82 0 01-9.8-9.8V27.7c.1-5.3 4.4-9.7 9.8-9.7"/><path fill="#fff" d="M61.5 34.6V32c0-1.8-1.4-3.2-3.2-3.2h-7.5c-1.8 0-3.2 1.4-3.2 3.2v2.6c0 .3.3.5.6.4a23.72 23.72 0 016.5-.9c2.1 0 4.3.3 6.3.9.2.1.5-.1.5-.4m-20.6 3.3l-1.3-1.3c-.6-.6-1.4-.9-2.3-.9s-1.7.3-2.3.9l-1.5 1.5c-.6.6-.9 1.4-.9 2.3s.3 1.7.9 2.3l1.3 1.3c.2.2.5.2.7 0 .7-1 1.6-2 2.5-2.9s1.9-1.7 2.9-2.5c.2-.2.2-.5 0-.7M54.6 46v11c0 .3.3.5.6.4l9.8-5.1c.2-.1.3-.4.2-.6-2-3.6-5.8-6-10.1-6.1-.3-.1-.5.1-.5.4m0 26.5a14.77 14.77 0 01-14.8-14.8 14.77 14.77 0 0114.8-14.8 14.77 14.77 0 0114.8 14.8 14.77 14.77 0 01-14.8 14.8m0-35.8c-11.6 0-21 9.4-21 21s9.4 20.9 21 20.9 21-9.4 21-21-9.4-20.9-21-20.9"/><path fill="#5468ff" d="M164.5 76.8c-14.4.1-14.4-11.7-14.4-13.5V19.4l8.8-1.4v43.6c0 1.1 0 7.8 5.7 7.8l-.1 7.4zm-35.7-7.1c2.7 0 4.7-.2 6.1-.4v-9c-.7-.2-1.4-.3-2.1-.4-1-.2-2-.2-3.1-.2-1 0-2 .1-3 .2s-1.9.4-2.7.8-1.4.9-1.9 1.6-.7 1.1-.7 2.2c0 2.1.7 3.3 2 4 1.4.7 3.2 1.2 5.4 1.2zm-.8-32c2.9 0 5.4.4 7.3 1.1 2 .7 3.6 1.7 4.8 3s2 3 2.5 4.9c.5 1.8.8 3.9.8 6.1v22.6c-1.4.3-3.4.6-6.1 1s-5.8.6-9.3.6c-2.3 0-4.4-.2-6.2-.7-1.9-.4-3.5-1.1-4.8-2.1s-2.4-2.2-3.1-3.7-1.1-3.7-1.1-5.9.4-3.5 1.3-5 2-2.7 3.4-3.6c1.5-.9 3.1-1.6 5-2s3.9-.6 6-.6c1 0 2 .1 3.1.2s2.2.3 3.4.6v-1.4c0-1-.1-2-.4-2.9-.2-.9-.7-1.7-1.3-2.4s-1.4-1.2-2.4-1.6-2.3-.7-3.8-.7a32.39 32.39 0 00-5.6.5c-1.7.3-3.1.6-4.1 1l-1.1-7.2c1.1-.4 2.7-.8 4.9-1.1 2.1-.5 4.4-.7 6.8-.7zm174 31.7c2.7 0 4.7-.2 6.1-.4v-9c-.5-.1-1.2-.3-2.1-.4-1-.2-2-.2-3.1-.2-1 0-2 .1-3 .2s-1.9.4-2.7.8-1.4.9-1.9 1.6-.7 1.1-.7 2.2c0 2.1.7 3.3 2 4 1.4.8 3.2 1.2 5.4 1.2zm-.7-31.9c2.9 0 5.4.4 7.3 1.1 2 .7 3.6 1.7 4.8 3s2 3 2.5 4.9c.5 1.8.8 3.9.8 6.1v22.6c-1.4.3-3.4.6-6.1 1s-5.8.6-9.3.6c-2.3 0-4.4-.2-6.2-.7-1.9-.4-3.5-1.1-4.8-2.1s-2.4-2.2-3.1-3.7-1.1-3.7-1.1-5.9.4-3.5 1.3-5 2-2.7 3.4-3.6c1.5-.9 3.1-1.6 5-2s3.9-.6 6-.6c1 0 2 .1 3.1.2s2.2.3 3.4.6v-1.4c0-1-.1-2-.4-2.9-.2-.9-.7-1.7-1.3-2.4s-1.4-1.2-2.4-1.6-2.3-.7-3.8-.7a32.39 32.39 0 00-5.6.5c-1.7.3-3.1.6-4.1 1l-1.1-7.2c1.1-.4 2.7-.8 4.9-1.1 2.1-.5 4.3-.7 6.8-.7zm-26.5-4.2c3 0 5.4-2.4 5.4-5.3s-2.4-5.3-5.4-5.3-5.4 2.4-5.4 5.3c.1 2.9 2.5 5.3 5.4 5.3zm4.5 43.5h-8.9v-38l8.9-1.4v39.4zm-15.6 0c-14.4.1-14.4-11.7-14.4-13.5V19.4l8.8-1.4v43.6c0 1.1 0 7.8 5.7 7.8v7.4zm-28.6-19.4c0-3.8-.8-7-2.5-9.2-1.6-2.2-3.9-3.3-6.8-3.3s-5.2 1.1-6.8 3.3-2.4 5.4-2.4 9.2.8 6.4 2.4 8.7c1.6 2.2 3.9 3.4 6.8 3.4s5.2-1.1 6.8-3.4c1.7-2.3 2.5-4.9 2.5-8.7zm9 0c0 3-.4 5.2-1.3 7.7s-2.1 4.5-3.7 6.3c-1.6 1.7-3.5 3.1-5.8 4s-5.7 1.5-7.5 1.5c-1.7 0-5.2-.5-7.4-1.5s-4.1-2.3-5.7-4-2.8-3.8-3.7-6.3-1.4-4.7-1.4-7.7.4-5.8 1.3-8.3c.9-2.4 2.2-4.5 3.8-6.2s3.6-3.1 5.8-4 4.7-1.4 7.3-1.4a19.89 19.89 0 017.4 1.4c2.3.9 4.2 2.3 5.8 4s2.8 3.8 3.7 6.2 1.4 5.3 1.4 8.3zm-66.3 0c0 3.7.8 7.8 2.4 9.5s3.7 2.6 6.3 2.6c1.4 0 2.7-.2 4-.6 1.2-.4 2.2-.8 3-1.4V45.6c-.6-.1-3.3-.7-5.8-.7-3.2-.1-5.6 1.2-7.3 3.3s-2.6 5.8-2.6 9.2zm24.5 17.3c0 6-1.5 10.4-4.6 13.2s-7.8 4.2-14.1 4.2c-2.3 0-7.1-.5-11-1.3l1.4-7c3.2.7 7.5.9 9.7.9 3.5 0 6.1-.7 7.6-2.2 1.5-1.4 2.3-3.6 2.3-6.4v-1.4c-.9.4-2 .9-3.4 1.3s-3.1.7-4.9.7c-2.4 0-4.6-.4-6.6-1.1-2-.8-3.7-1.9-5.2-3.4-1.4-1.5-2.5-3.4-3.3-5.6s-1.2-6.2-1.2-9.1c0-2.7.4-6.2 1.3-8.5s2.1-4.3 3.7-5.9 3.6-2.9 5.9-3.8 5-1.5 8-1.5c2.9 0 5.5.4 8.1.8s4.8.9 6.5 1.4l-.2 34.7z"/></svg>