<svg xmlns="http://www.w3.org/2000/svg" width="334" height="110"><path d="M21.3 27.8h10.2v22.6h21.4V27.8h10.2v55.5H52.9V60.2H31.5v23.1H21.3V27.8zm74.1 37.4c0 4.6-3.8 8.4-8.4 8.4s-8.4-3.8-8.4-8.4V41.3H69v23.9a18.1 18.1 0 1036.2 0V41.3h-9.6v23.9m36.3-23.6c-4.8 0-8.1 1.4-11.3 4.6V27.8h-9.7v34c0 12.7 9.2 21.5 19.5 21.5 11.5 0 21.6-8.9 21.6-20.8s-9.3-20.9-20.1-20.9zm.3 32.7c-6.6 0-11.6-5.5-11.6-11.9s5-11.9 11.6-11.9c5.6 0 10.6 5.5 10.6 11.9-.1 6.4-5.1 11.9-10.6 11.9zM168.3 44c0-4.9 3.2-6.4 6.8-6.4 2.9 0 6.6 2.2 9.1 4.8l6.3-7.4c-3.2-4.2-9.6-7.2-14.8-7.2-10.5 0-18.1 6.1-18.1 16.2 0 18.7 23.1 12.8 23.1 23.3 0 3.2-3.2 6.1-6.8 6.1-5.7 0-7.6-2.8-10.2-5.7l-7 7.3c4.5 5.5 10 8.3 16.7 8.3 10 0 18-6.2 18-15.8-.1-21-23.1-14.5-23.1-23.5m48.5-3c-10.3 0-19.5 8.7-19.5 21.4v34.1h9.7V78.1c3.2 3.2 6.6 4.6 11.3 4.6 10.8 0 20.1-9 20.1-20.8 0-12-10.1-20.9-21.6-20.9zm1.7 32.7c-6.6 0-11.6-5.5-11.6-11.9s5-11.9 11.6-11.9c5.6 0 10.6 5.5 10.6 11.9 0 6.5-5 11.9-10.6 11.9zm91.1.6c-5.7 0-7.3-2.5-7.3-6.3V51.3h8.9v-8.5h-8.9V31.6l-9.8 4.4v34.1c0 8.7 6 13.1 14.3 13.1 1.2 0 2.9-.1 3.9-.3l2.4-8.8c-1.2.1-2.4.2-3.5.2" fill="#45535e"/><path fill="#f8761f" d="M284.1 51.8c-1.9-3.2-4.5-5.7-7.7-7.7a21.31 21.31 0 00-7.8-2.7V31.3c2.8-1.2 4.6-3.9 4.6-7 0-4.3-3.4-7.7-7.7-7.7s-7.7 3.4-7.7 7.7c0 3.1 1.7 5.8 4.5 7v10.1c-2.3.3-4.6 1-6.8 2.1l-27.3-20.7c.2-.7.4-1.5.4-2.3 0-4.7-3.8-8.5-8.5-8.5s-8.5 3.8-8.5 8.5 3.8 8.5 8.5 8.5c1.6 0 3.1-.5 4.4-1.2l1.8 1.4 24.5 17.7c-1.3 1.2-2.5 2.5-3.5 4.1-2 3.1-3.2 6.5-3.2 10.2v.8c0 2.6.5 5.1 1.3 7.4.7 2 1.8 3.9 3.2 5.5l-8.1 8.2c-.7-.3-1.5-.4-2.3-.4-1.8 0-3.4.7-4.7 1.9-1.2 1.2-1.9 2.9-1.9 4.7s.7 3.4 1.9 4.7c1.2 1.2 2.9 1.9 4.7 1.9s3.4-.7 4.7-1.9c1.2-1.2 1.9-2.9 1.9-4.7 0-.7-.1-1.3-.3-2l8.4-8.4c1.2.8 2.4 1.5 3.7 2 2.6 1.1 5.6 1.8 8.7 1.8h.6c3.5 0 6.9-.8 10-2.5 3.3-1.8 5.9-4.2 7.8-7.4 2-3.1 3-6.6 3-10.4v-.2c.1-3.8-.8-7.3-2.6-10.4zm-10.3 17.6c-2.3 2.5-4.9 4.1-7.9 4.1h-.5c-1.7 0-3.4-.5-5-1.3-1.8-.9-3.2-2.3-4.4-4s-1.8-3.5-1.8-5.4v-.6c0-1.9.4-3.7 1.3-5.4 1-1.9 2.3-3.3 4.1-4.4 1.7-1.1 3.6-1.7 5.6-1.7h.2c1.9 0 3.6.4 5.3 1.2 1.7.9 3.1 2.1 4.2 3.8 1 1.6 1.7 3.4 1.9 5.3v1.2c0 2.6-1 5-3 7.2z"/></svg>