<svg xmlns="http://www.w3.org/2000/svg" width="334" height="110"><path fill="#706d6e" d="M332.6 51v-5.8h-7.2v-9.1l-.2.1-6.8 2.1h-.1v6.9h-10.7v-3.8c0-1.8.4-3.1 1.2-4.1.8-.9 1.9-1.4 3.3-1.4 1 0 2.1.2 3.1.7l.3.1v-6.1h-.1c-1-.4-2.3-.5-4-.5a12.02 12.02 0 00-5.7 1.4c-1.7.9-3 2.2-3.9 3.9a12.02 12.02 0 00-1.4 5.7v4.2h-5V51h5v24.5h7.2V51h10.7v15.6c0 6.4 3 9.7 9 9.7 1 0 2-.1 3.1-.3s1.8-.5 2.2-.7l.1-.1v-5.9l-.3.2c-.4.3-.9.5-1.5.6-.6.2-1.1.2-1.4.2-1.4 0-2.4-.4-3.1-1.1-.6-.8-1-2.1-1-3.9V51h7.2zm-53.5 19.4c-2.6 0-4.7-.9-6.2-2.6s-2.2-4.2-2.2-7.3c0-3.2.7-5.7 2.2-7.5 1.5-1.7 3.5-2.6 6.1-2.6 2.5 0 4.5.8 5.9 2.5s2.2 4.2 2.2 7.4c0 3.3-.7 5.8-2 7.5-1.4 1.7-3.4 2.6-6 2.6zm.3-26c-5 0-9 1.5-11.8 4.4s-4.3 6.9-4.3 11.9c0 4.8 1.4 8.6 4.2 11.4s6.5 4.2 11.2 4.2c4.9 0 8.8-1.5 11.6-4.4s4.3-6.9 4.3-11.8c0-4.8-1.3-8.7-4-11.4-2.7-2.9-6.5-4.3-11.2-4.3zm-27.7 0c-3.4 0-6.2.9-8.4 2.6s-3.3 4-3.3 6.7c0 1.4.2 2.7.7 3.8s1.2 2 2.2 2.8 2.4 1.6 4.4 2.5c1.6.7 2.9 1.3 3.7 1.7s1.3.9 1.6 1.3.4 1 .4 1.7c0 2-1.5 3-4.7 3-1.2 0-2.5-.2-4-.7s-2.8-1.2-4-2.1l-.3-.2v7l.1.1c1 .5 2.3.9 3.8 1.2s2.9.5 4.1.5c3.7 0 6.7-.9 8.8-2.6 2.2-1.7 3.3-4.1 3.3-6.9 0-2-.6-3.8-1.8-5.2s-3.2-2.7-6-3.8c-2.3-.9-3.7-1.7-4.3-2.2-.6-.6-.9-1.3-.9-2.3 0-.9.4-1.6 1.1-2.2s1.8-.9 3.1-.9c1.2 0 2.4.2 3.7.6 1.2.4 2.3.9 3.2 1.5l.3.2v-6.6h-.1c-.8-.4-1.9-.7-3.2-.9-1.3-.4-2.5-.6-3.5-.6zm-30.5 26c-2.6 0-4.7-.9-6.2-2.6s-2.2-4.2-2.2-7.3c0-3.2.7-5.7 2.2-7.5 1.5-1.7 3.5-2.6 6.1-2.6 2.5 0 4.5.8 5.9 2.5s2.2 4.2 2.2 7.4c0 3.3-.7 5.8-2 7.5-1.4 1.7-3.4 2.6-6 2.6zm.3-26c-5 0-9 1.5-11.8 4.4s-4.3 6.9-4.3 11.9c0 4.8 1.4 8.6 4.2 11.4s6.5 4.2 11.2 4.2c4.9 0 8.8-1.5 11.6-4.4s4.3-6.9 4.3-11.8c0-4.8-1.3-8.7-4-11.4-2.8-2.9-6.5-4.3-11.2-4.3zm-27.1 6v-5.3h-7.1v30.4h7.1V60c0-2.6.6-4.8 1.8-6.5 1.2-1.6 2.7-2.4 4.6-2.4.6 0 1.4.1 2.1.3.8.2 1.3.4 1.7.7l.3.2v-7.2h-.1c-.7-.3-1.6-.4-2.8-.4-1.8 0-3.4.6-4.8 1.7-1.2 1-2 2.3-2.8 4zm-19.9-6c-3.3 0-6.2.7-8.7 2.1s-4.4 3.4-5.7 5.9-2 5.5-2 8.7c0 2.9.6 5.5 1.9 7.8a14.46 14.46 0 005.3 5.4c2.3 1.3 4.9 1.9 7.8 1.9 3.4 0 6.3-.7 8.6-2l.1-.1v-6.5l-.3.2c-1.1.8-2.2 1.4-3.5 1.8s-2.4.7-3.4.7c-2.8 0-5.1-.9-6.7-2.6s-2.5-4.2-2.5-7.2c0-3.1.9-5.6 2.6-7.4s4-2.8 6.7-2.8c2.3 0 4.6.8 6.8 2.4l.3.2V46l-.1-.1c-.8-.5-1.9-.8-3.3-1.1-1.3-.2-2.6-.4-3.9-.4zm-21.3.8H146v30.4h7.1V45.2h.1zm-3.5-13c-1.2 0-2.2.4-3 1.2s-1.3 1.8-1.3 3 .4 2.1 1.3 2.9c.8.8 1.9 1.2 3.1 1.2s2.2-.4 3.1-1.2c.8-.8 1.3-1.8 1.3-2.9s-.4-2.1-1.2-2.9c-1-.9-2.1-1.3-3.3-1.3zm-17.8 10.7v32.6h7.3V33.2h-10.1l-12.8 31.5-12.4-31.5H93.3v42.4h6.9V42.9h.2l13.1 32.6h5.2l12.9-32.6h.3z"/><path fill="#f1511b" d="M35 52.6H1.4V19H35v33.6z"/><path fill="#80cc28" d="M72.1 52.6H38.5V19h33.6v33.6z"/><path fill="#00adef" d="M35 89.7H1.4V56.1H35v33.6z"/><path fill="#fbbc09" d="M72.1 89.7H38.5V56.1h33.6v33.6z"/></svg>