<svg xmlns="http://www.w3.org/2000/svg" width="334" height="110"><path fill="#db3975" d="M323.616 54.355c.01 25.6-20.726 46.344-46.316 46.355s-46.344-20.726-46.355-46.316v-.038C230.934 28.764 251.67 8 277.26 8s46.344 20.726 46.355 46.316v.04"/><path d="M258.948 40.643h7.55v31.72h-7.55v-31.72zm27.758 32.672c-9.896 0-16.497-7.232-16.497-16.938S276.934 39.7 286.386 39.7c8.817 0 16.37 6.156 16.43 16.687.001 9.896-6.53 16.938-16.1 16.938m-.378-26.773c-4.762 0-8.2 3.806-8.2 9.64 0 6.537 4 10.152 8.567 10.152 5.52 0 8.3-4.822 8.117-10.086-.125-5.265-3.17-9.707-8.495-9.707m-18.44-13.4a5.046 5.046 0 11-10.09 0 5.044 5.044 0 015.044-5.047 5.05 5.05 0 015.046 5.047" fill="#fff"/><path d="M25.02 38.77h9.383L34.4 43.3c3.17-3.963 8.8-5.63 12.525-5.63s8.405 1.427 11.022 6.105c1.585-2.22 5.706-6.105 12.686-6.105 3.963 0 7.768 1.1 10.465 4.044 3.17 3.5 3.092 7.692 3.092 11.813V78.6h-9.436V56.63c0-3.726.555-10-6.66-10-3 0-5.47 1.665-6.738 3.727-1.824 2.934-2.062 6.104-2.062 9.513v18.72H49.85v-22.2c0-2.855 0-3.887-.317-5.074-.712-2.618-2.773-4.68-6.104-4.68-2.855 0-5.628 1.664-7.294 4.598-1.666 3.093-1.745 6.82-1.745 10.703V78.6h-9.434l.066-39.832m62.644.102H97.1v3.647c1.507-1.584 4.68-4.835 10.863-4.835 11.655 0 17.996 10.467 17.996 21.407 0 11.813-7.374 20.613-17.996 20.613-5.47 0-8.88-2.615-10.863-4.44v16.176h-9.434V38.87zm19.028 31.87c4.6 0 9.594-3.17 9.594-12.13 0-9.9-6.897-11.8-9.75-11.8-4.362 0-9.355 3.17-9.514 11.653-.16 8.166 4.36 12.288 9.67 12.288zm42.686 8.962c-12.368 0-20.613-9.04-20.613-21.17s8.404-20.85 20.215-20.85c11.02 0 20.458 7.692 20.536 20.85.001 12.37-8.168 21.17-20.138 21.17m-.477-33.457c-5.945 0-10.226 4.757-10.226 12.05 0 8.168 4.993 12.687 10.703 12.687 6.896 0 10.385-6.024 10.148-12.607-.16-6.58-3.965-12.13-10.625-12.13m32.854-7.375v6.17c1.188-2.062 3.805-6.74 12.685-6.502V48.3c-2.06.08-5.632.158-8.563 2.378-4.044 3.092-4.122 7.137-4.122 13.716v14.2h-9.198V38.87h9.198m-169.92-.1h9.653v39.857h-9.653V38.77zm11.43-9.623a6.46 6.46 0 01-6.452 6.452 6.46 6.46 0 01-6.453-6.452c0-3.564 2.9-6.453 6.453-6.453s6.452 2.9 6.452 6.453M220.865 47.76v-1.418h.01v-6.82h-.01v-.52h-8.474V25.65h-9.514v13.354H196.9v8.758h5.976v18.145c0 3.965 0 6.502.633 8.087 1.824 4.835 8.48 4.835 10.464 4.835 2.143 0 4.045-.157 6.9-.633v-8.008c-1.347.397-2.538.474-3.967.474-4.514 0-4.514-2.14-4.514-7.055V47.76h8.473" fill="#4c4d4a"/></svg>