<svg xmlns="http://www.w3.org/2000/svg" width="72" height="72"  xmlns:v="https://vecta.io/nano"><linearGradient id="A" gradientUnits="userSpaceOnUse" x1="36" y1="72" x2="36" y2="0"><stop offset="0" stop-color="#ffe59a"/><stop offset="1" stop-color="#ffffd5"/></linearGradient><circle cx="36" cy="36" r="36" fill="url(#A)"/><linearGradient id="B" gradientUnits="userSpaceOnUse" x1="36" y1="14.766" x2="36" y2="57.234"><stop offset="0" stop-color="#fd5900"/><stop offset="1" stop-color="#ffde00"/></linearGradient><path d="M26 43.5c0-2.1-1.7-3.7-3.7-3.7a3.76 3.76 0 0 0-3.7 3.7c0 2.1 1.7 3.7 3.7 3.7s3.7-1.6 3.7-3.7zm27.5 0c0-2.1-1.7-3.7-3.7-3.7-2.1 0-3.7 1.7-3.7 3.7 0 2.1 1.7 3.7 3.7 3.7s3.7-1.6 3.7-3.7zM36 44.7a8.71 8.71 0 0 0-8.7 8.7V56c0 .7.6 1.2 1.2 1.2h15c.7 0 1.2-.6 1.2-1.2v-2.5c0-4.8-3.9-8.8-8.7-8.8h0zm5-5a4.95 4.95 0 0 0-5-5 4.95 4.95 0 0 0-5 5 4.95 4.95 0 0 0 5 5 4.95 4.95 0 0 0 5-5zm8.7 7.5a7.04 7.04 0 0 0-3.8 1.1c.8 1.6 1.3 3.3 1.3 5.2V56a4.3 4.3 0 0 1-.2 1.2h9c.7 0 1.2-.6 1.2-1.2v-1.2c0-4.2-3.3-7.6-7.5-7.6zm-23.6 1.1a7.04 7.04 0 0 0-3.8-1.1c-4.1 0-7.5 3.4-7.5 7.5V56c0 .7.6 1.2 1.2 1.2h9c-.1-.4-.2-.8-.2-1.2v-2.5c0-1.9.5-3.6 1.3-5.2zm-2.6-11.1c3 0 5.5-2.1 6.1-5H46c2.1 0 3.7-1.7 3.7-3.7v-10c0-2.1-1.7-3.7-3.7-3.7H26c-2.1 0-3.7 1.7-3.7 3.7V36c0 .7.5 1.2 1.2 1.2h0zM31 19.8h10c.7 0 1.2.6 1.2 1.2 0 .7-.6 1.2-1.2 1.2H31c-.7 0-1.2-.6-1.2-1.2 0-.7.5-1.2 1.2-1.2zm0 5h10c.7 0 1.2.6 1.2 1.2 0 .7-.6 1.2-1.2 1.2H31c-.7 0-1.2-.6-1.2-1.2 0-.7.5-1.2 1.2-1.2z" fill="url(#B)"/></svg>