<svg xmlns="http://www.w3.org/2000/svg" height="512" width="512"  xmlns:v="https://vecta.io/nano"><linearGradient id="A" gradientUnits="userSpaceOnUse" x1="256" x2="256" y1="512" y2="0"><stop offset="0" stop-color="#addcff"/><stop offset=".503" stop-color="#eaf6ff"/></linearGradient><linearGradient id="B" gradientUnits="userSpaceOnUse" x1="256" x2="256" y1="407" y2="105"><stop offset="0" stop-color="#00c0ff"/><stop offset="1" stop-color="#5558ff"/></linearGradient><circle cx="256" cy="256" fill="url(#A)" r="256"/><path d="M247.118 238.235c0-34.28-27.896-62.176-62.177-62.176s-62.176 27.896-62.176 62.176 27.896 62.176 62.176 62.176 62.177-27.895 62.177-62.176zm-62.177 62.177c-44.082 0-79.941 35.859-79.941 79.941v17.765a8.88 8.88 0 0 0 8.882 8.882H256a8.88 8.88 0 0 0 8.882-8.882v-17.765c0-44.082-35.859-79.941-79.941-79.941zm204.294-133.236c0-34.28-27.896-62.176-62.177-62.176s-62.177 27.896-62.177 62.176 27.896 62.176 62.177 62.176 62.177-27.895 62.177-62.176zm-62.176 62.177c-44.082 0-79.941 35.859-79.941 79.941v17.765a8.88 8.88 0 0 0 8.882 8.882h142.118a8.88 8.88 0 0 0 8.882-8.882v-17.765c0-44.082-35.859-79.941-79.941-79.941z" fill="url(#B)"/></svg>