<svg xmlns="http://www.w3.org/2000/svg" height="512" width="512"  xmlns:v="https://vecta.io/nano"><linearGradient id="A" gradientUnits="userSpaceOnUse" x1="256" x2="256" y1="512" y2="0"><stop offset="0" stop-color="#c3ffe8"/><stop offset=".997" stop-color="#f0fff4"/></linearGradient><linearGradient id="B" gradientUnits="userSpaceOnUse" x1="256" x2="256" y1="176.059" y2="335.941"><stop offset="0" stop-color="#00b59c"/><stop offset="1" stop-color="#9cffac"/></linearGradient><circle cx="256" cy="256" fill="url(#A)" r="256"/><path d="M371.471 327.059v8.882h26.647a8.88 8.88 0 0 0 8.882-8.882v-26.647h-8.882c-14.694 0-26.647 11.953-26.647 26.647zm-17.765-142.118v-8.882H158.294v8.882c0 24.487-19.916 44.412-44.412 44.412H105v53.294h8.882c24.496 0 44.412 19.925 44.412 44.412v8.882h195.412v-8.882c0-24.487 19.916-44.412 44.412-44.412H407v-53.294h-8.882c-24.496 0-44.412-19.925-44.412-44.412zm-168.765 79.941h-17.765a8.88 8.88 0 1 1 0-17.764h17.765a8.88 8.88 0 1 1 0 17.764zM256 247.118c14.694 0 26.647 11.953 26.647 26.647 0 11.565-7.448 21.332-17.765 25.011v10.519a8.88 8.88 0 1 1-17.764 0v-10.519c-10.317-3.679-17.765-13.446-17.765-25.011a8.88 8.88 0 1 1 17.764 0c0 4.901 3.99 8.882 8.882 8.882s8.882-3.981 8.882-8.882-3.99-8.882-8.882-8.882c-14.694 0-26.647-11.953-26.647-26.647 0-11.565 7.448-21.332 17.765-25.011v-10.519a8.88 8.88 0 1 1 17.764 0v10.519c10.317 3.679 17.765 13.446 17.765 25.011a8.88 8.88 0 1 1-17.764 0c0-4.901-3.99-8.882-8.882-8.882s-8.882 3.981-8.882 8.882 3.99 8.882 8.882 8.882zm88.823 17.764h-17.765a8.88 8.88 0 1 1 0-17.764h17.765a8.88 8.88 0 1 1 0 17.764zm53.295-88.823h-26.647v8.882c0 14.694 11.953 26.647 26.647 26.647H407v-26.647a8.88 8.88 0 0 0-8.882-8.882zM113.882 300.412H105v26.647a8.88 8.88 0 0 0 8.882 8.882h26.647v-8.882c0-14.694-11.953-26.647-26.647-26.647zm26.647-115.471v-8.882h-26.647a8.88 8.88 0 0 0-8.882 8.882v26.647h8.882c14.694 0 26.647-11.953 26.647-26.647z" fill="url(#B)"/></svg>