<svg xmlns="http://www.w3.org/2000/svg" width="72" height="72"  xmlns:v="https://vecta.io/nano"><linearGradient id="A" gradientUnits="userSpaceOnUse" x1="36" y1="72" x2="36" y2="0"><stop offset="0" stop-color="#c3ffe8"/><stop offset=".997" stop-color="#f0fff4"/></linearGradient><circle cx="36" cy="36" r="36" fill="url(#A)"/><linearGradient id="B" gradientUnits="userSpaceOnUse" x1="36" y1="14.766" x2="36" y2="57.234"><stop offset="0" stop-color="#00b59c"/><stop offset="1" stop-color="#9cffac"/></linearGradient><path d="M29.8 22.3h12.5c.7 0 1.2-.6 1.2-1.2v-2.5c0-.7-.6-1.2-1.2-1.2h-3.7c0-1.4-1.1-2.5-2.5-2.5s-2.5 1.1-2.5 2.5h-3.7c-.7 0-1.2.6-1.2 1.2V21c-.2.7.4 1.3 1.1 1.3zM51 19.8h-5V21c0 2.1-1.7 3.7-3.7 3.7H29.8c-2.1 0-3.7-1.7-3.7-3.7v-1.2h-5c-.7 0-1.2.6-1.2 1.2v35c0 .7.6 1.2 1.2 1.2h30c.7 0 1.2-.6 1.2-1.2V21c-.1-.7-.6-1.2-1.3-1.2zm-13.8 15c0-.7.6-1.2 1.2-1.2h1.2v-3.7c0-.7.6-1.2 1.2-1.2.7 0 1.2.6 1.2 1.2v3.7h1.2c.7 0 1.2.6 1.2 1.2v7.5c0 .7-.6 1.2-1.2 1.2H42v3.7c0 .7-.6 1.2-1.2 1.2-.7 0-1.2-.6-1.2-1.2v-3.7h-1.2c-.7 0-1.2-.6-1.2-1.2v-7.5zm-9.9 0c0-.7.6-1.2 1.2-1.2h1.2v-3.7c0-.7.6-1.2 1.2-1.2.7 0 1.2.6 1.2 1.2v3.7h1.2c.7 0 1.2.6 1.2 1.2v7.5c0 .7-.6 1.2-1.2 1.2h-1.2v3.7c0 .7-.6 1.2-1.2 1.2-.7 0-1.2-.6-1.2-1.2v-3.7h-1.2c-.7 0-1.2-.6-1.2-1.2v-7.5zM46 53.5H26c-.7 0-1.2-.6-1.2-1.2 0-.7.6-1.2 1.2-1.2h20c.7 0 1.2.6 1.2 1.2s-.5 1.2-1.2 1.2zM32.3 36h-2.5v5h2.5v-5zm9.9 0h-2.5v5h2.5v-5z" fill="url(#B)"/></svg>