<svg xmlns="http://www.w3.org/2000/svg" height="512" width="512"  xmlns:v="https://vecta.io/nano"><linearGradient id="A" gradientUnits="userSpaceOnUse" x1="256" x2="256" y1="512" y2="0"><stop offset="0" stop-color="#ffe59a"/><stop offset="1" stop-color="#ffffd5"/></linearGradient><linearGradient id="B" gradientUnits="userSpaceOnUse" x1="256" x2="256" y1="122.768" y2="389.232"><stop offset="0" stop-color="#fd5900"/><stop offset="1" stop-color="#ffde00"/></linearGradient><circle cx="256" cy="256" fill="url(#A)" r="256"/><path d="M228.347 307.142a8.89 8.89 0 0 0-8.622-6.731H131.65a8.89 8.89 0 0 0-8.622 6.731l-17.764 71.057c-.659 2.654-.069 5.465 1.613 7.616 1.683 2.16 4.268 3.417 7.009 3.417H237.49a8.88 8.88 0 0 0 7.009-3.417c1.683-2.151 2.273-4.961 1.614-7.616zm178.389 71.057l-17.764-71.057a8.89 8.89 0 0 0-8.622-6.731h-88.075a8.89 8.89 0 0 0-8.622 6.731l-17.764 71.057c-.659 2.654-.069 5.465 1.614 7.616 1.683 2.16 4.268 3.417 7.009 3.417h123.604a8.88 8.88 0 0 0 7.009-3.417c1.68-2.151 2.27-4.962 1.611-7.616zm-213.657-95.553h125.842a8.88 8.88 0 0 0 7.009-3.417c1.683-2.151 2.273-4.961 1.614-7.616l-17.764-71.057a8.89 8.89 0 0 0-8.622-6.731h-90.313a8.89 8.89 0 0 0-8.622 6.731l-17.764 71.057c-.659 2.655-.069 5.465 1.614 7.616 1.68 2.16 4.265 3.417 7.006 3.417zm-61.429-71.057h8.882v8.882a8.88 8.88 0 1 0 17.764 0v-8.882h8.882a8.88 8.88 0 1 0 0-17.764h-8.882v-8.882a8.88 8.88 0 1 0-17.764 0v8.882h-8.882a8.88 8.88 0 1 0 0 17.764zm213.171 0h8.882v8.882a8.88 8.88 0 1 0 17.764 0v-8.882h8.882a8.88 8.88 0 1 0 0-17.764h-8.882v-8.882a8.88 8.88 0 1 0-17.764 0v8.882h-8.882a8.88 8.88 0 1 0 0 17.764zm-106.585-53.293h8.882v8.882a8.88 8.88 0 1 0 17.764 0v-8.882h8.882a8.88 8.88 0 1 0 0-17.764h-8.882v-8.882a8.88 8.88 0 1 0-17.764 0v8.882h-8.882a8.88 8.88 0 1 0 0 17.764z" fill="url(#B)"/></svg>