<?xml version="1.0" encoding="utf-8"?>
<!-- Generator: Adobe Illustrator 24.3.0, SVG Export Plug-In . SVG Version: 6.00 Build 0)  -->
<!DOCTYPE svg PUBLIC "-//W3C//DTD SVG 1.1//EN" "http://www.w3.org/Graphics/SVG/1.1/DTD/svg11.dtd" [
	<!ENTITY ns_extend "http://ns.adobe.com/Extensibility/1.0/">
	<!ENTITY ns_ai "http://ns.adobe.com/AdobeIllustrator/10.0/">
	<!ENTITY ns_graphs "http://ns.adobe.com/Graphs/1.0/">
	<!ENTITY ns_vars "http://ns.adobe.com/Variables/1.0/">
	<!ENTITY ns_imrep "http://ns.adobe.com/ImageReplacement/1.0/">
	<!ENTITY ns_sfw "http://ns.adobe.com/SaveForWeb/1.0/">
	<!ENTITY ns_custom "http://ns.adobe.com/GenericCustomNamespace/1.0/">
	<!ENTITY ns_adobe_xpath "http://ns.adobe.com/XPath/1.0/">
]>
<svg version="1.1"
	 id="Layer_1" xmlns:x="&ns_extend;" xmlns:i="&ns_ai;" xmlns:graph="&ns_graphs;" xmlns:v="https://vecta.io/nano"
	 xmlns="http://www.w3.org/2000/svg" xmlns:xlink="http://www.w3.org/1999/xlink" x="0px" y="0px" width="500px" height="409.6px"
	 viewBox="0 0 500 409.6" style="enable-background:new 0 0 500 409.6;" xml:space="preserve">
<style type="text/css">
	.st0{opacity:0.18;fill:#FC5B3F;enable-background:new    ;}
	.st1{fill:#DC9BD5;}
</style>
<metadata>
	<sfw  xmlns="&ns_sfw;">
		<slices></slices>
		<sliceSourceBounds  bottomLeftOrigin="true" height="409.5" width="500" x="0" y="0"></sliceSourceBounds>
	</sfw>
</metadata>
<g>
	<path class="st0" d="M2.7,295.9c2.7,16.8,19.4,94.8,80.2,111.3c46,12.6,175.2-30.5,248.8-8.8C479.8,442,507,325,498.7,293.5
		c-5.8-22-12.9-44.1-13.1-67.1c-0.2-24,8.2-47.7,9.2-71.9c2.3-61.3-40.7-121.4-99.5-139c-25.2-7.5-45.7-15.2-72-15.4
		C270-0.4,143.6,0.1,81.4,90.6c-11.1,16.2-27.3,28.3-39.7,43.5c-16.6,20.4-27.6,45-34.2,70.4C-0.3,234.3-2.2,265.7,2.7,295.9z"/>
</g>
<path class="st1" d="M183.4,265.7l-0.2-0.2l1.8,2.1L183.4,265.7z"/>
<path class="st1" d="M105,265.3l-0.2-0.2l1.8,2.1C106.6,267.2,105,265.3,105,265.3z"/>
<path class="st1" d="M259.3,265.2l-0.2-0.2l1.8,2.1C260.4,266.4,259.8,265.8,259.3,265.2L259.3,265.2z"/>
</svg>
