<?xml version="1.0" encoding="utf-8"?>
<!-- Generator: Adobe Illustrator 24.3.0, SVG Export Plug-In . SVG Version: 6.00 Build 0)  -->
<!DOCTYPE svg PUBLIC "-//W3C//DTD SVG 1.1//EN" "http://www.w3.org/Graphics/SVG/1.1/DTD/svg11.dtd" [
	<!ENTITY ns_extend "http://ns.adobe.com/Extensibility/1.0/">
	<!ENTITY ns_ai "http://ns.adobe.com/AdobeIllustrator/10.0/">
	<!ENTITY ns_graphs "http://ns.adobe.com/Graphs/1.0/">
	<!ENTITY ns_vars "http://ns.adobe.com/Variables/1.0/">
	<!ENTITY ns_imrep "http://ns.adobe.com/ImageReplacement/1.0/">
	<!ENTITY ns_sfw "http://ns.adobe.com/SaveForWeb/1.0/">
	<!ENTITY ns_custom "http://ns.adobe.com/GenericCustomNamespace/1.0/">
	<!ENTITY ns_adobe_xpath "http://ns.adobe.com/XPath/1.0/">
]>
<svg version="1.1"
	 id="Layer_1" xmlns:x="&ns_extend;" xmlns:i="&ns_ai;" xmlns:graph="&ns_graphs;" xmlns:v="https://vecta.io/nano"
	 xmlns="http://www.w3.org/2000/svg" xmlns:xlink="http://www.w3.org/1999/xlink" x="0px" y="0px" width="480px" height="409.9px"
	 viewBox="0 0 480 409.9" style="enable-background:new 0 0 480 409.9;" xml:space="preserve">
<style type="text/css">
	.st0{opacity:0.18;fill:#FC5B3F;enable-background:new    ;}
</style>
<metadata>
	<sfw  xmlns="&ns_sfw;">
		<slices></slices>
		<sliceSourceBounds  bottomLeftOrigin="true" height="409.9" width="479.9" x="0" y="0"></sliceSourceBounds>
	</sfw>
</metadata>
<path class="st0" d="M470.5,275.8c-3.5,13.7-9.5,27.5-14.9,39.7c-20.2,46.2-54.1,77.8-107.3,71.3c-25.6-3.2-50.8-11.7-76.6-10.9
	c-24.7,0.8-48.2,10.1-71.7,17.9c-43.6,14.4-91.9,23.7-135,7.8s-76.5-64.8-61.2-108.1C15.7,259.7,53,237,57,201.3
	C62,155,7.2,115,18.8,69.8c4.9-19,20.7-33.2,37.5-43.4C94.9,2.8,142.2-5,186.4,3.1c42.1,7.6,77.2,43,119.6,44.6
	c27.4,1.1,53.7-14.5,80.9-11.9c33.7,3.3,58.5,33.1,74.2,63.1c5.1,9.4,9.3,19.1,12.7,29.3c6.5,20.5,7.9,42.5,3.8,63.7
	c-4.1,21.8-3.6,42.2-4.2,64.6C473.3,263,472.2,269.5,470.5,275.8L470.5,275.8z"/>
</svg>
