<svg xmlns="http://www.w3.org/2000/svg" height="512" width="512"  xmlns:v="https://vecta.io/nano"><linearGradient id="A" gradientUnits="userSpaceOnUse" x1="256" x2="256" y1="512" y2="0"><stop offset="0" stop-color="#ffc8d1"/><stop offset="1" stop-color="#fff6f7"/></linearGradient><linearGradient id="B" gradientUnits="userSpaceOnUse" x1="256" x2="256" y1="105" y2="407"><stop offset="0" stop-color="#fd3a84"/><stop offset="1" stop-color="#ffa68d"/></linearGradient><circle cx="256" cy="256" fill="url(#A)" r="256"/><path d="M220.471 282.647h-71.059a8.88 8.88 0 0 0-8.882 8.882v106.588a8.88 8.88 0 1 0 17.764 0v-79.941h53.294v79.941a8.88 8.88 0 1 0 17.764 0V291.529a8.88 8.88 0 0 0-8.881-8.882zm-106.589-71.059H256a8.88 8.88 0 0 0 8.882-8.882v-88.823a8.88 8.88 0 0 0-8.882-8.882H113.882a8.88 8.88 0 0 0-8.882 8.882v88.823a8.88 8.88 0 0 0 8.882 8.882zm29.25-41.809l17.765-17.765a8.88 8.88 0 0 1 12.56 0l11.485 11.485 14.704-14.704c-3.384-1.253-5.821-4.442-5.821-8.266a8.88 8.88 0 0 1 8.882-8.882h17.765c4.862 0 8.882 3.984 8.882 8.882v17.765a8.88 8.88 0 0 1-8.882 8.882c-3.823 0-7.012-2.438-8.265-5.822l-20.984 20.984a8.88 8.88 0 0 1-12.56 0l-11.485-11.485-11.485 11.485a8.88 8.88 0 1 1-12.561-12.559zm103.986 228.339A8.88 8.88 0 0 0 256 407h142.118a8.88 8.88 0 0 0 8.882-8.882v-62.177H247.118zm62.176-35.53h35.529a8.88 8.88 0 1 1 0 17.765h-35.529a8.88 8.88 0 1 1 0-17.765zm88.824-115.47h-186.53v-17.765h-53.294v17.765h-44.412A8.88 8.88 0 0 0 105 256v142.118a8.88 8.88 0 1 0 17.764 0V264.882h124.353v53.294H407V256a8.88 8.88 0 0 0-8.882-8.882zm-53.294 44.411h-35.529a8.88 8.88 0 1 1 0-17.764h35.529a8.88 8.88 0 1 1 0 17.764z" fill="url(#B)"/></svg>