<?xml version="1.0" encoding="utf-8"?>
<!-- Generator: Adobe Illustrator 24.3.0, SVG Export Plug-In . SVG Version: 6.00 Build 0)  -->
<!DOCTYPE svg PUBLIC "-//W3C//DTD SVG 1.1//EN" "http://www.w3.org/Graphics/SVG/1.1/DTD/svg11.dtd" [
	<!ENTITY ns_extend "http://ns.adobe.com/Extensibility/1.0/">
	<!ENTITY ns_ai "http://ns.adobe.com/AdobeIllustrator/10.0/">
	<!ENTITY ns_graphs "http://ns.adobe.com/Graphs/1.0/">
	<!ENTITY ns_vars "http://ns.adobe.com/Variables/1.0/">
	<!ENTITY ns_imrep "http://ns.adobe.com/ImageReplacement/1.0/">
	<!ENTITY ns_sfw "http://ns.adobe.com/SaveForWeb/1.0/">
	<!ENTITY ns_custom "http://ns.adobe.com/GenericCustomNamespace/1.0/">
	<!ENTITY ns_adobe_xpath "http://ns.adobe.com/XPath/1.0/">
]>
<svg version="1.1"
	 id="Layer_1" xmlns:x="&ns_extend;" xmlns:i="&ns_ai;" xmlns:graph="&ns_graphs;" xmlns:v="https://vecta.io/nano"
	 xmlns="http://www.w3.org/2000/svg" xmlns:xlink="http://www.w3.org/1999/xlink" x="0px" y="0px" width="350px" height="295.6px"
	 viewBox="0 0 350 295.6" style="enable-background:new 0 0 350 295.6;" xml:space="preserve">
<style type="text/css">
	.st0{opacity:0.18;fill:#FC5B3F;enable-background:new    ;}
</style>
<metadata>
	<sfw  xmlns="&ns_sfw;">
		<slices></slices>
		<sliceSourceBounds  bottomLeftOrigin="true" height="295.5" width="350" x="0" y="0.1"></sliceSourceBounds>
	</sfw>
</metadata>
<g>
	<path class="st0" d="M343.2,181.8c-6.2,11.7-17.4,20.8-20.5,33.6c-1.4,5.5-1,11.3-1.7,17c-2.5,19.9-17.3,36.3-35.1,45.7
		c-0.8,0.4-1.5,0.8-2.3,1.2c-11.7,5.7-24.3,8.8-37.1,10.7c-7.8,1.2-15.7,1.9-23.6,2.5c-32.6,2.6-65.2,3.5-98,2.8
		c-15.8-0.3-31.9-1.1-46.8-6.3c-0.8-0.3-1.5-0.5-2.3-0.8C63.7,283.6,53,275.9,43.5,267l-0.4-0.4c-14.1-13.2-25.9-29.2-33.4-47
		C-1.1,194-2.9,165.7,4.4,139c4.5-15.9,12.3-30.9,13.5-47.3c0.9-12.3-2-24.8-0.1-37c4-24.3,26.5-42.1,50.3-48.1S117,4,141.3,7.4
		c11.9,1.7,25.8,6.3,37.5,2.6C193.2,5.6,205.4,0,221,0c6.3,0,12.8,0.7,18.7,3.2c7.1,3.1,12.7,8.7,18.4,13.9
		c16,14.3,34.2,25.9,50.6,39.9c16.4,13.9,31.2,30.9,37.2,51.6c3,10.1,3.7,20.7,4,31.2C350.4,154.1,349.9,169.1,343.2,181.8z"/>
</g>
</svg>
