<svg xmlns="http://www.w3.org/2000/svg" height="512" width="512"  xmlns:v="https://vecta.io/nano"><linearGradient id="A" gradientUnits="userSpaceOnUse" x1="256" x2="256" y1="512" y2="0"><stop offset="0" stop-color="#ffc8d1"/><stop offset="1" stop-color="#fff6f7"/></linearGradient><linearGradient id="B" gradientUnits="userSpaceOnUse" x1="381.248" x2="159.818" y1="209.959" y2="431.389"><stop offset="0" stop-color="#fd3a84"/><stop offset="1" stop-color="#ffa68d"/></linearGradient><circle cx="256" cy="256" fill="url(#A)" r="256"/><path d="M398.118 371.366c-4.892 0-8.882-3.981-8.882-8.882a8.88 8.88 0 0 0-8.882-8.882H291.53a8.88 8.88 0 0 0-8.882 8.882c0 4.901-3.99 8.882-8.882 8.882a8.88 8.88 0 0 0-8.882 8.882v17.765a8.88 8.88 0 0 0 8.882 8.882h124.353a8.88 8.88 0 0 0 8.882-8.882v-17.765a8.88 8.88 0 0 0-8.883-8.882zm-290.516-4.753a8.88 8.88 0 0 0 0 12.56l25.12 25.12a8.88 8.88 0 0 0 12.56 0l56.529-56.525-37.683-37.685zm134.572-134.58l-65.486 65.489 37.683 37.686 65.494-65.49zm50.252 25.126l55.449-55.449-37.689-37.681-55.446 55.446zm-77.975-52.848c1.665 1.665 3.921 2.602 6.28 2.602h21.443l55.45-55.441-.004-21.456c0-2.359-.937-4.615-2.602-6.28l-16.238-16.238c-3.331-3.331-9.229-3.331-12.56 0l-68.006 68.014a8.88 8.88 0 0 0 0 12.56zm90.541 86.854c0 2.359.937 4.615 2.602 6.28l16.238 16.238a8.88 8.88 0 0 0 12.56 0l68.006-68.005a8.88 8.88 0 0 0 0-12.56l-16.238-16.247c-1.665-1.665-3.921-2.602-6.28-2.602h-21.443l-55.45 55.45z" fill="url(#B)"/></svg>