<?xml version="1.0" encoding="utf-8"?>
<!-- Generator: Adobe Illustrator 24.3.0, SVG Export Plug-In . SVG Version: 6.00 Build 0)  -->
<!DOCTYPE svg PUBLIC "-//W3C//DTD SVG 1.1//EN" "http://www.w3.org/Graphics/SVG/1.1/DTD/svg11.dtd" [
	<!ENTITY ns_extend "http://ns.adobe.com/Extensibility/1.0/">
	<!ENTITY ns_ai "http://ns.adobe.com/AdobeIllustrator/10.0/">
	<!ENTITY ns_graphs "http://ns.adobe.com/Graphs/1.0/">
	<!ENTITY ns_vars "http://ns.adobe.com/Variables/1.0/">
	<!ENTITY ns_imrep "http://ns.adobe.com/ImageReplacement/1.0/">
	<!ENTITY ns_sfw "http://ns.adobe.com/SaveForWeb/1.0/">
	<!ENTITY ns_custom "http://ns.adobe.com/GenericCustomNamespace/1.0/">
	<!ENTITY ns_adobe_xpath "http://ns.adobe.com/XPath/1.0/">
]>
<svg version="1.1"
	 id="Layer_1" xmlns:x="&ns_extend;" xmlns:i="&ns_ai;" xmlns:graph="&ns_graphs;" xmlns:v="https://vecta.io/nano"
	 xmlns="http://www.w3.org/2000/svg" xmlns:xlink="http://www.w3.org/1999/xlink" x="0px" y="0px" width="350px" height="295.6px"
	 viewBox="0 0 350 295.6" style="enable-background:new 0 0 350 295.6;" xml:space="preserve">
<style type="text/css">
	.st0{opacity:0.18;fill:#FC5B3F;enable-background:new    ;}
</style>
<metadata>
	<sfw  xmlns="&ns_sfw;">
		<slices></slices>
		<sliceSourceBounds  bottomLeftOrigin="true" height="250.1" width="350" x="0" y="0.8"></sliceSourceBounds>
	</sfw>
</metadata>
<path class="st0" d="M140.2,52.5l-11-2.8c-16.1-3.9-33.5-7.9-49-2c-12.6,4.9-22,15.5-30.8,25.7c-11.6,13.4-23.2,27-31.9,42.4
	C-3,152.5-6.1,204.4,11.3,242.5c6.9,15.2,16.1,29.9,30,39.2c14.4,9.7,32.6,12.7,49.9,11.1s33.9-7.6,49.8-14.3
	c17.8-7.6,36.6-16.7,55.6-12.9c9.9,2,18.8,7.2,27.7,12c15.6,8.3,32.4,15.4,50.1,16.9s36.5-3,49.3-15.4c12.5-12,17.8-29.6,20.8-46.6
	c3.2-17.7,3.8-35.8,2.1-53.6c-1.7-17.3,5.6-33.8,2.7-51.6c-2.2-13.9-9.5-27.5-21.4-35.2c-14.7-9.5-33.6-8.8-51.1-8.4
	C261.9,84.1,247,84,232,83.5c-9.2-0.3-18.3-0.8-27.1-3.7c-9.9-3.3-18.6-9.4-27.9-14.1C165.4,59.6,152.9,55.8,140.2,52.5L140.2,52.5z
	"/>
</svg>
