<svg xmlns="http://www.w3.org/2000/svg" height="512" width="512"  xmlns:v="https://vecta.io/nano"><linearGradient id="A" gradientUnits="userSpaceOnUse" x1="256" x2="256" y1="512" y2="0"><stop offset="0" stop-color="#c3ffe8"/><stop offset=".997" stop-color="#f0fff4"/></linearGradient><linearGradient id="B" gradientUnits="userSpaceOnUse" x1="256" x2="256" y1="105" y2="407"><stop offset="0" stop-color="#00b59c"/><stop offset="1" stop-color="#9cffac"/></linearGradient><circle cx="256" cy="256" fill="url(#A)" r="256"/><path d="M256 176.059c34.28 0 62.176-27.896 62.176-62.177a8.88 8.88 0 0 0-8.882-8.882H202.706a8.88 8.88 0 0 0-8.882 8.882c0 34.281 27.896 62.177 62.176 62.177zm44.688 4.076a79.48 79.48 0 0 1-89.376 0c-42.503 41.686-70.782 131.575-70.782 164.689 0 49.183 40.664 62.177 62.176 62.177h106.588c21.512 0 62.176-12.994 62.176-62.177.001-33.114-28.278-123.003-70.782-164.689zM256 282.647c14.694 0 26.647 11.953 26.647 26.647 0 11.565-7.448 21.332-17.765 25.011v10.519a8.88 8.88 0 1 1-17.764 0v-10.519c-10.317-3.679-17.765-13.446-17.765-25.011a8.88 8.88 0 1 1 17.764 0c0 4.901 3.99 8.882 8.882 8.882s8.882-3.981 8.882-8.882-3.99-8.882-8.882-8.882c-14.694 0-26.647-11.953-26.647-26.647 0-11.565 7.448-21.332 17.765-25.011v-10.518a8.88 8.88 0 1 1 17.764 0v10.518c10.317 3.679 17.765 13.446 17.765 25.011a8.88 8.88 0 1 1-17.764 0c0-4.901-3.99-8.882-8.882-8.882s-8.882 3.981-8.882 8.882 3.99 8.882 8.882 8.882z" fill="url(#B)"/></svg>