<svg xmlns="http://www.w3.org/2000/svg" xmlns:xlink="http://www.w3.org/1999/xlink" width="43.02" height="26" xmlns:v="https://vecta.io/nano"><style><![CDATA[.E{fill:#f3f4f5}.F{fill:#e7e7e7}.G{fill:#dc3027}.H{fill:#e73625}]]></style><path d="M22.6 23.72h0zM30.02.04l-.76.02h1.52l-.76-.02z" fill="#c42126"/><path d="M33.86 4.8h6.2c-.74-.9-1.6-1.7-2.54-2.36h-4.66c.38.67.7 1.47 1 2.36z" class="F"/><path d="M32.87 2.43h4.66A12.95 12.95 0 0 0 30.78.06h-.4c1.18.16 1.72 1.03 2.5 2.37z" class="G"/><path d="M42.54 9.53a12.16 12.16 0 0 0-.93-2.37h-7.14l.34 2.36h7.73z" class="F"/><path d="M34.07 7.16h7.54a13.38 13.38 0 0 0-1.54-2.37h-6.6a22.18 22.18 0 0 1 .59 2.37z" class="G"/><path d="M35.1 14.26h7.87c.04-.4.06-.8.06-1.22l-.05-1.15H35.1v2.37z" class="F"/><path d="M42.97 11.9c-.07-.8-.22-1.6-.43-2.36H34.5l.16 2.36h8.32z" class="G"/><path d="M34.34 19h7.24a12.86 12.86 0 0 0 .94-2.37H34.7L34.34 19z" class="F"/><path d="M42.52 16.62c.22-.76.37-1.55.44-2.36h-8.12l-.17 2.36h7.85z" class="G"/><path d="M37.43 23.72a13.46 13.46 0 0 0 2.58-2.36h-6.1c-.3.9-.62 1.7-1.02 2.36h4.54z" class="F"/><path d="M33.7 21.35h6.33c.6-.73 1.13-1.52 1.56-2.37h-7.3c-.16.85-.36 1.64-.6 2.37zm-4.15 4.68h-.08.08zm.47.01a12.93 12.93 0 0 0 7.41-2.32h-4.7c-.84 1.44-1.4 2.32-2.7 2.32z" class="G"/><path d="M30.02 26.04c-.16 0-.3 0-.47-.01l.47.01z" fill="#c42126"/><path d="M33.3 2.43H22.5c-.95.67-1.8 1.47-2.54 2.36H34.3c-.28-.88-.6-1.68-1-2.36z" class="E"/><path d="M22.5 2.43h10.8C32.54 1.1 31.56.2 30.38.06h-1.12a13.07 13.07 0 0 0-6.75 2.37z" class="H"/><path d="M17.5 9.53h17.72l-.34-2.36H18.43c-.38.74-.7 1.53-.92 2.36z" class="E"/><path d="M19.97 4.8c-.6.73-1.1 1.52-1.54 2.37h16.45c-.16-.84-.36-1.63-.6-2.37H19.96z" class="H"/><path d="M17.02 13.04l.06 1.22h18.3V11.9H17.07l-.05 1.14z" class="E"/><path d="M17.07 11.9h18.3l-.16-2.36H17.5c-.22.76-.36 1.55-.44 2.36z" class="H"/><path d="M35.22 16.62h-17.7a12.86 12.86 0 0 0 .94 2.37h16.4l.35-2.37z" class="E"/><path d="M17.52 16.62h17.7l.17-2.36h-18.3c.07.8.23 1.6.44 2.36z" class="H"/><path d="M22.6 23.72h10.65c.4-.68.73-1.48 1.02-2.36H20.03a13.17 13.17 0 0 0 2.58 2.36z" class="E"/><path d="M18.46 19a13.48 13.48 0 0 0 1.56 2.37h14.25c.24-.73.43-1.53.6-2.37h-16.4zm11 7.03h.08l.47.01c1.32 0 2.4-.88 3.24-2.32H22.6c1.96 1.37 4.32 2.2 6.86 2.3z" class="H"/><path d="M29.75.05C23.1.2 17.66 5.33 17.07 11.87h12.68V.05z" fill="#283991"/><g fill="#efefef"><use xlink:href="#A"/><use xlink:href="#A" y="2.16"/><path d="M21.78 4.18l.2.6h.64l-.52.37.2.6-.52-.37-.52.37.2-.6-.52-.37h.64z"/><use xlink:href="#A" x="2.16" y="-1.07"/><path d="M21.78 8.5l.2.6h.64l-.52.37.2.6-.52-.37-.52.37.2-.6-.52-.37h.64zM18 10.08l-.2-.6.52-.38h-.64l-.01-.04-.2.66h.01l.5.38zm1.1-3.23l.52-.38.52.38-.2-.6.52-.38h-.64l-.2-.6-.2.6h-.24l-.12.2.24.18-.2.6zm2.68-3.6l.52.38-.2-.6.52-.38h-.37l-.9.75-.08.24.52-.38zm1.62-.7l.52-.38.52.38-.2-.6.52-.38h-.64l-.03-.08-.64.35.15.1-.2.6z"/><use xlink:href="#A" x="4.31" y="-4.3"/><use xlink:href="#A" x="4.31" y="-2.15"/><use xlink:href="#A" x="4.31"/><use xlink:href="#A" x="4.31" y="2.16"/><path d="M26.1 2.02l.2.6h.65L26.4 3l.2.6-.52-.38-.52.38.2-.6-.52-.38h.64zm0 2.16l.2.6h.65l-.52.37.2.6-.52-.37-.52.37.2-.6-.52-.37h.64zm0 2.15l.2.6h.65l-.52.38.2.6-.52-.38-.52.38.2-.6-.52-.38h.64zm0 2.17l.2.6h.65l-.52.37.2.6-.52-.37-.52.37.2-.6-.52-.37h.64z"/><use xlink:href="#A" x="8.62" y="-6.46"/><use xlink:href="#A" x="8.62" y="-4.3"/><use xlink:href="#A" x="8.62" y="-2.15"/><use xlink:href="#A" x="8.62"/><use xlink:href="#A" x="8.62" y="2.16"/></g><path d="M13 0v26c7.18 0 13-5.82 13-13S20.18 0 13 0z" fill="#252f6b"/><path d="M13 0C5.82 0 0 5.82 0 13s5.82 13 13 13 7.18-26 0-26z" fill="#273375"/><path d="M8.92 19.93l.87-1.1-1.35.24-.47-1.3-.5 1.3-1.4-.24.88 1.06-.9 1.07 1.4-.22.47 1.3.5-1.3 1.42.26zm10.36.97l.5-.62-.76.14-.27-.74-.3.74-.78-.14.5.6-.52.6.8-.12.26.73.3-.73.8.14zm0-13.7l.5-.62-.76.14-.27-.74-.3.74-.78-.14.5.6-.52.6.8-.12.26.72.3-.72.8.14zm3.22 3.55l.5-.62-.77.14-.26-.74-.3.74-.8-.14.5.6-.52.6.8-.12.27.72.3-.72.8.14zm-6 1.57l.5-.62-.76.14-.27-.74-.3.74-.78-.14.5.6-.5.6.8-.12.26.73.3-.73.8.14z" class="E"/><path d="M2.73 5.03l-.58.8h1.4l-.8-.8zM9.44 13h1.26l-1.26-1.25zM5.3 2.53a9.72 9.72 0 0 0-.86.7l.86.86V2.53zM4.04 13H5.3v-1.25zM13 0c-1.23 0-2.43.18-3.56.5v3.6L13 .54V0zm0 11.8V10h-1.8zM.54 13l3-3H.35c-.23.96-.35 1.97-.35 3h.54zM11.2 5.85H13v-1.8z" fill="#29337a"/><g fill="#fff"><path d="M13 12.18v-.38L11.2 10H13v-.65h-2.83zM3.54 5.85h-1.4l-.4.65H4.5L2.86 4.87l-.13.16.8.82zm1.76 5.9V13h.65v-2.2L3.74 13h.3zM9.44.5L8.8.7v4.34L13 .84v-.3L9.44 4.1V.5zM5.27 10l.64-.64H.52L.35 10h3.2l-3 3h1.73l3-3z"/><path d="M.54 13l3-3-3 3zM13 6.5v-.64h-1.8l1.8-1.8V2.3L8.82 6.5z"/><path d="M13 4.04l-1.8 1.8 1.8-1.8zm-7.7.06l-.86-.86a11.77 11.77 0 0 0-.88.85l2.4 2.4V2.1l-.65.44V4.1zm4.14 7.65L10.7 13h1.65L8.8 9.45V13h.64z"/></g><g fill="#d32030"><path d="M5.3 5.82v.02-.02z"/><path d="M10.82 10l-.65-.65H13V6.5H8.82L13 2.3V.84l-4.2 4.2V.7c-1.02.35-1.98.8-2.86 1.4v4.38l.02.02h-.02v-.02l-.63-.63H5.3v-.02L3.55 4.08l-.7.8L4.48 6.5H1.75C1.23 7.4.82 8.35.52 9.36h5.4l.02-.02v.02h-.01l-.63.62V10h-.02l-3 3h1.47l2.2-2.2V13H8.8V9.45L12.35 13h.5l.17-.18v-.64L10.82 10z"/><path d="M8.8 5.04L13 .84zM5.3 10v-.03l-.02.03zm.64-.67l-.02.02h.02zM8.8 6.5h0zm-3.5-.65h.02v-.03zm.66.65l-.02-.02v.02z"/></g><defs><path id="A" d="M19.62 7.4l.2.6h.64l-.52.38.2.6-.52-.38-.52.38.2-.6-.52-.38h.64z"/></defs></svg>