<svg xmlns="http://www.w3.org/2000/svg" height="512" width="512"  xmlns:v="https://vecta.io/nano"><linearGradient id="A" gradientUnits="userSpaceOnUse" x1="256" x2="256" y1="512" y2="0"><stop offset="0" stop-color="#addcff"/><stop offset=".503" stop-color="#eaf6ff"/></linearGradient><linearGradient id="B" gradientUnits="userSpaceOnUse" x1="256" x2="256" y1="407" y2="105"><stop offset="0" stop-color="#00c0ff"/><stop offset="1" stop-color="#5558ff"/></linearGradient><circle cx="256" cy="256" fill="url(#A)" r="256"/><path d="M273.765 247.118c-4.975 0-8.882 3.908-8.882 8.882v115.471h53.294V256c0-4.975-3.908-8.882-8.882-8.882zM214.19 262.28c1.735 1.735 4.008 2.602 6.28 2.602s4.545-.867 6.28-2.602l126.955-126.955v14.087a8.88 8.88 0 1 0 17.764 0v-35.529a8.92 8.92 0 0 0-8.882-8.882h-35.529a8.88 8.88 0 1 0 0 17.764h14.087L220.471 243.44l-64.779-64.779a8.88 8.88 0 1 0-12.56 12.56zm121.751-59.574v168.765h53.294V202.706c0-4.975-3.908-8.882-8.882-8.882h-35.53a8.79 8.79 0 0 0-8.882 8.882zm-133.235 97.706c-4.975 0-8.882 3.908-8.882 8.882v62.176h53.294v-62.176c0-4.975-3.908-8.882-8.882-8.882zM176.059 256c0-4.975-3.908-8.882-8.882-8.882h-35.53c-4.975 0-8.882 3.908-8.882 8.882v115.471h53.294zm222.059 133.235H113.882c-4.975 0-8.882 3.908-8.882 8.882s3.908 8.882 8.882 8.882h284.235c4.975 0 8.882-3.909 8.882-8.882a8.79 8.79 0 0 0-8.881-8.882z" fill="url(#B)"/></svg>