<svg xmlns="http://www.w3.org/2000/svg" width="72" height="72"  xmlns:v="https://vecta.io/nano"><linearGradient id="A" gradientUnits="userSpaceOnUse" x1="36" y1="72" x2="36" y2="0"><stop offset="0" stop-color="#ffc8d1"/><stop offset="1" stop-color="#fff6f7"/></linearGradient><circle cx="36" cy="36" r="36" fill="url(#A)"/><linearGradient id="B" gradientUnits="userSpaceOnUse" x1="53.613" y1="29.526" x2="22.474" y2="60.664"><stop offset="0" stop-color="#fd3a84"/><stop offset="1" stop-color="#ffa68d"/></linearGradient><path d="M56 52.2c-.7 0-1.2-.6-1.2-1.2 0-.7-.6-1.2-1.2-1.2H41c-.7 0-1.2.6-1.2 1.2 0 .7-.6 1.2-1.2 1.2-.7 0-1.2.6-1.2 1.2V56c0 .7.6 1.2 1.2 1.2H56c.7 0 1.2-.6 1.2-1.2v-2.5c0-.7-.5-1.3-1.2-1.3h0zm-40.9-.6c-.5.5-.5 1.3 0 1.8l3.5 3.5c.5.5 1.3.5 1.8 0l7.9-7.9-5.3-5.3-7.9 7.9zm19-19l-9.2 9.2 5.3 5.3 9.2-9.2-5.3-5.3zm7 3.6l7.8-7.8-5.3-5.3-7.8 7.8 5.3 5.3zm-10.9-7.5c.2.2.6.4.9.4h3l7.8-7.8v-3c0-.3-.1-.6-.4-.9l-2.3-2.3c-.5-.5-1.3-.5-1.8 0l-9.6 9.6c-.5.5-.5 1.3 0 1.8l2.4 2.2zm12.7 12.2c0 .3.1.6.4.9l2.3 2.3c.5.5 1.3.5 1.8 0l9.6-9.6c.5-.5.5-1.3 0-1.8l-2.3-2.3c-.2-.2-.6-.4-.9-.4h-3L43 37.8l-.1 3.1z" fill="url(#B)"/></svg>