<svg xmlns="http://www.w3.org/2000/svg" width="72" height="72"  xmlns:v="https://vecta.io/nano"><linearGradient id="A" gradientUnits="userSpaceOnUse" x1="36" y1="72" x2="36" y2="0"><stop offset="0" stop-color="#addcff"/><stop offset=".503" stop-color="#eaf6ff"/></linearGradient><circle cx="36" cy="36" r="36" fill="url(#A)"/><linearGradient id="B" gradientUnits="userSpaceOnUse" x1="36" y1="57.234" x2="36" y2="14.766"><stop offset="0" stop-color="#00c0ff"/><stop offset="1" stop-color="#5558ff"/></linearGradient><path d="M38.5 34.8c-.7 0-1.2.5-1.2 1.2v16.2h7.5V36c0-.7-.5-1.2-1.2-1.2h-5.1zm-8.4 2.1c.2.2.6.4.9.4s.6-.1.9-.4L49.7 19v2c0 .7.6 1.2 1.2 1.2.7 0 1.2-.6 1.2-1.2v-5c0-.7-.6-1.2-1.2-1.2h-5c-.7 0-1.2.6-1.2 1.2 0 .7.6 1.2 1.2 1.2h2l-17 17-9.1-9.1c-.5-.5-1.3-.5-1.8 0s-.5 1.3 0 1.8l10.1 10zm17.1-8.4v23.7h7.5V28.5c0-.7-.5-1.2-1.2-1.2h-5c-.7 0-1.3.5-1.3 1.2h0zM28.5 42.2c-.7 0-1.2.5-1.2 1.2v8.7h7.5v-8.7c0-.7-.5-1.2-1.2-1.2h-5.1zM24.8 36c0-.7-.5-1.2-1.2-1.2h-5c-.7 0-1.2.5-1.2 1.2v16.2h7.5L24.8 36zM56 54.7H16c-.7 0-1.2.5-1.2 1.2s.5 1.2 1.2 1.2h40c.7 0 1.2-.5 1.2-1.2 0-.6-.5-1.2-1.2-1.2h0z" fill="url(#B)"/></svg>