<svg xmlns="http://www.w3.org/2000/svg" xmlns:xlink="http://www.w3.org/1999/xlink" width="43" height="26" xmlns:v="https://vecta.io/nano"><style><![CDATA[.K{fill:#e7e7e7}.L{fill:#dc3027}.M{fill:#f3f4f5}.N{fill:#e73625}]]></style><path d="M22.6 23.7h0zM30 0h-.8.8z" fill="#c42126"/><path d="M33.9 4.8h6.2c-.7-.9-1.6-1.7-2.5-2.4h-4.7l1 2.4z" class="K"/><path d="M32.9 2.4h4.7C35.6 1 33.3.2 30.9 0h-.4c1.1.2 1.6 1 2.4 2.4h0z" class="L"/><path d="M42.5 9.5c-.2-.8-.5-1.6-.9-2.4h-7.1l.3 2.4h7.7z" class="K"/><path d="M34.1 7.1h7.5c-.4-.8-.9-1.6-1.5-2.4h-6.6l.6 2.4z" class="L"/><path d="M35.1 14.2H43c0-.4.1-.8.1-1.2v-1.1h-7.9v2.3z" class="K"/><path d="M43 11.9l-.4-2.4h-8l.2 2.4H43z" class="L"/><path d="M34.3 19h7.2c.4-.8.7-1.6.9-2.4h-7.8l-.3 2.4z" class="K"/><path d="M42.5 16.6c.2-.8.4-1.6.4-2.4h-8.1l-.2 2.4h7.9z" class="L"/><path d="M37.4 23.7c1-.7 1.8-1.5 2.6-2.4h-6.1c-.3.9-.6 1.7-1 2.4h4.5z" class="K"/><path d="M33.7 21.3H40c.6-.7 1.1-1.5 1.6-2.4h-7.3l-.6 2.4zM29.5 26h0zm.5 0c2.6 0 5.2-.8 7.4-2.3h-4.7c-.8 1.4-1.4 2.3-2.7 2.3h0z" class="L"/><path d="M30 26h-.5.5z" fill="#c42126"/><path d="M33.3 2.4H22.5c-1 .7-1.8 1.5-2.5 2.4h14.3c-.3-.9-.6-1.7-1-2.4z" class="M"/><path d="M22.5 2.4h10.8C32.5 1 31.6.2 30.4 0h-1.1c-2.5.2-4.8 1-6.8 2.4h0z" class="N"/><path d="M17.5 9.5h17.7l-.3-2.4H18.4c-.4.8-.7 1.6-.9 2.4h0z" class="M"/><path d="M20 4.8c-.6.7-1.1 1.5-1.5 2.4H35l-.6-2.4H20z" class="N"/><path d="M17 13l.1 1.2h18.3v-2.4H17.1L17 13z" class="M"/><path d="M17.1 11.9h18.3l-.2-2.4H17.5c-.2.8-.4 1.5-.4 2.4h0z" class="N"/><path d="M35.2 16.6H17.5c.2.8.5 1.6.9 2.4h16.4l.4-2.4z" class="M"/><path d="M17.5 16.6h17.7l.2-2.4H17.1l.4 2.4z" class="N"/><path d="M22.6 23.7h10.6c.4-.7.7-1.5 1-2.4H20c.8.9 1.6 1.7 2.6 2.4h0z" class="M"/><path d="M18.5 19c.4.8 1 1.6 1.6 2.4h14.2l.6-2.4H18.5zm11 7h.5c1.3 0 2.4-.9 3.2-2.3H22.6c2 1.4 4.4 2.2 6.9 2.3h0z" class="N"/><path d="M29.8 0c-6.6.1-12.1 5.3-12.7 11.8h12.7V0z" fill="#283991"/><g fill="#efefef"><use xlink:href="#B"/><use xlink:href="#B" y="2.1"/><use xlink:href="#B" x="2.2" y="-3.3"/><use xlink:href="#B" x="2.2" y="-1.1"/><path d="M21.8 8.4l.2.6h.6l-.5.4.2.6-.5-.4-.5.4.2-.6-.6-.4h.6l.3-.6zM18 10l-.2-.6.5-.4h-.6v-.1l-.2.7.5.4zm1.1-3.2l.5-.4.5.4-.2-.6.5-.4h-.6l-.2-.6-.2.6h-.2c0 .1-.1.1-.1.2l.2.2-.2.6zm2.7-3.6l.5.4-.2-.6.5-.4h-.4l-.9.8-.1.2.6-.4zm1.6-.7l.5-.4.5.4-.2-.6.5-.4h-.6v-.1l-.6.4.1.1-.2.6zm.5.6l.2.6h.6l-.5.3.2.6-.5-.4-.5.4.2-.6-.5-.4h.6l.2-.5z"/><use xlink:href="#B" x="4.3" y="-2.2"/><use xlink:href="#B" x="4.3"/><use xlink:href="#B" x="4.3" y="2.1"/><path d="M26.1 2l.2.6h.7l-.6.4.2.6-.5-.4-.5.4.2-.6-.5-.4h.6l.2-.6zm0 2.1l.2.6h.7l-.5.4.2.6-.5-.4-.5.4.2-.6-.5-.4h.6l.1-.6zm0 2.2l.2.6h.7l-.5.4.2.6-.5-.4-.5.4.2-.6-.5-.4h.6l.1-.6zm0 2.1l.2.6h.7l-.5.4.2.6-.5-.4-.6.4.2-.6-.5-.4h.6l.2-.6z"/><use xlink:href="#B" x="8.6" y="-6.5"/><path d="M28.2 3.1l.2.6h.6l-.4.3.2.6-.5-.4-.5.4.1-.6-.5-.4h.6l.2-.5z"/><use xlink:href="#B" x="8.6" y="-2.2"/><use xlink:href="#B" x="8.6"/><use xlink:href="#B" x="8.6" y="2.1"/></g><path d="M21.1 2.8C15.4-1.6 7.3-.7 2.8 5-1.7 10.6-.7 18.8 4.9 23.3s13.8 3.5 18.3-2.1c4.5-5.7 3.5-13.9-2.1-18.4z" fill="#f0a70a"/><path d="M22.9 12c.3 2.5-.4 5-1.9 7a10.02 10.02 0 0 1-13.9 2.1c-2.2-1.7-3.7-4.2-4-6.9-.3-2.5.4-5 1.9-7 1.6-2.2 3.9-3.6 6.5-4s5.3.3 7.4 1.8c2.2 1.7 3.7 4.2 4 7z" fill="#fed22b"/><path d="M17.3 15.4c0-1-.1-2.1-1.1-2.8.6-.5.9-1.4.9-2.4 0-1.1-.4-1.9-1.1-2.4-.1-.1-.2-.1-.3-.2V6.3c0-.5-.4-.9-.9-.9s-.9.4-.9.9v1h-1.8v-1c0-.5-.4-.9-.9-.9s-.9.4-.9.9v1h-.4a1.11 1.11 0 0 0-1.1 1.1 1.11 1.11 0 0 0 1.1 1.1h.3v7.2h-.4a1.11 1.11 0 0 0-1.1 1.1 1.11 1.11 0 0 0 1.1 1.1h.4v1c0 .5.4.9.9.9s.9-.4.9-.9v-1h1.8v1c0 .5.4.9.9.9s.9-.4.9-.9v-1.3c1.1-.6 1.7-1.6 1.7-3.2zm-5.1-6.2C14 9.2 15 9 15 10.4c0 1.5-.9 1.3-2.8 1.3V9.2zm0 7.7v-3.4c2.2 0 3-.3 3 1.8 0 1.1-.5 1.6-1.5 1.6h-1.5z" fill="#e38803"/><defs ><path id="B" d="M19.6 7.4l.2.6h.6l-.5.4.2.6-.5-.4-.5.4.2-.6-.5-.4h.6l.2-.6z"/></defs></svg>