<svg xmlns="http://www.w3.org/2000/svg" height="512" width="512"  xmlns:v="https://vecta.io/nano"><linearGradient id="A" gradientUnits="userSpaceOnUse" x1="256" x2="256" y1="512" y2="0"><stop offset="0" stop-color="#ffbef9"/><stop offset="1" stop-color="#fff1ff"/></linearGradient><linearGradient id="B" gradientUnits="userSpaceOnUse" x1="256" x2="256" y1="407" y2="105"><stop offset="0" stop-color="#ff81ff"/><stop offset="1" stop-color="#a93aff"/></linearGradient><circle cx="256" cy="256" fill="url(#A)" r="256"/><path d="M229.375 211.58h-106.5c-4.906 0-8.875 3.973-8.875 8.883v44.414h124.25v-44.414c0-4.91-3.969-8.883-8.875-8.883zM114 335.938h124.25v-53.296H114zm0 62.179c0 4.91 3.969 8.883 8.875 8.883h106.5c4.906 0 8.875-3.973 8.875-8.883v-44.414H114zm275.125-115.475h-106.5c-4.906 0-8.875 3.973-8.875 8.883v44.414H398v-44.414c0-4.91-3.969-8.883-8.875-8.883zM273.75 398.117c0 4.91 3.969 8.883 8.875 8.883h106.5c4.906 0 8.875-3.973 8.875-8.883v-44.414H273.75zM146.9 155.681l20.35-20.368v49.618c0 4.91 3.969 8.883 8.875 8.883s8.875-3.973 8.875-8.883v-49.618l20.35 20.368a8.87 8.87 0 0 0 12.55 0c3.467-3.47 3.467-9.091 0-12.561l-35.489-35.52a8.9 8.9 0 0 0-12.571 0l-35.489 35.52c-3.467 3.47-3.467 9.091 0 12.561s9.082 3.47 12.549 0zm159.75 71.062L327 206.375v49.619c0 4.91 3.969 8.883 8.875 8.883s8.875-3.973 8.875-8.883v-49.619l20.35 20.368a8.87 8.87 0 0 0 12.55 0c3.467-3.47 3.467-9.091 0-12.561l-35.489-35.52a8.9 8.9 0 0 0-12.571 0l-35.489 35.52c-3.467 3.47-3.467 9.091 0 12.561s9.082 3.47 12.549 0z" fill="url(#B)"/></svg>