<svg xmlns="http://www.w3.org/2000/svg" height="512" width="512"  xmlns:v="https://vecta.io/nano"><linearGradient id="A" gradientUnits="userSpaceOnUse" x1="256" x2="256" y1="512" y2="0"><stop offset="0" stop-color="#ffbef9"/><stop offset="1" stop-color="#fff1ff"/></linearGradient><linearGradient id="B" gradientUnits="userSpaceOnUse" x1="256" x2="256" y1="105" y2="407"><stop offset="0" stop-color="#a93aff"/><stop offset="1" stop-color="#ff81ff"/></linearGradient><circle cx="256" cy="256" fill="url(#A)" r="256"/><path d="M362.588 264.882h-115.47v-115.47a8.88 8.88 0 0 0-8.882-8.882c-73.47 0-133.235 59.765-133.235 133.235S164.765 407 238.235 407 371.47 347.235 371.47 273.765a8.88 8.88 0 0 0-8.882-8.883zM273.765 105a8.88 8.88 0 0 0-8.882 8.882v124.353a8.88 8.88 0 0 0 8.882 8.882h124.353a8.88 8.88 0 0 0 8.882-8.882C407 164.765 347.235 105 273.765 105z" fill="url(#B)"/></svg>