<svg xmlns="http://www.w3.org/2000/svg" height="512" width="512"  xmlns:v="https://vecta.io/nano"><linearGradient id="A" gradientUnits="userSpaceOnUse" x1="256" x2="256" y1="512" y2="0"><stop offset="0" stop-color="#ffedad"/><stop offset="1" stop-color="#ffffe5"/></linearGradient><linearGradient id="B" gradientUnits="userSpaceOnUse" x1="256" x2="256" y1="407" y2="105"><stop offset="0" stop-color="#feba00"/><stop offset="1" stop-color="#fd5900"/></linearGradient><circle cx="256" cy="256" fill="url(#A)" r="256"/><path d="M264.882 299.282c10.212-2.508 17.765-9.081 17.765-16.635s-7.553-14.127-17.765-16.635zm-35.529-69.929c0 7.554 7.553 14.127 17.765 16.635v-33.27c-10.212 2.508-17.765 9.081-17.765 16.635zM256 140.529c-63.668 0-115.471 51.802-115.471 115.471S192.332 371.471 256 371.471 371.471 319.668 371.471 256 319.668 140.529 256 140.529zm44.412 142.118c0 17.161-15.284 31.51-35.529 34.811v9.601a8.88 8.88 0 1 1-17.764 0v-9.601c-20.246-3.3-35.529-17.65-35.529-34.811a8.88 8.88 0 1 1 17.764 0c0 7.554 7.553 14.127 17.765 16.635v-35.118c-20.246-3.301-35.529-17.65-35.529-34.811s15.284-31.51 35.529-34.811v-9.601a8.88 8.88 0 1 1 17.764 0v9.601c20.246 3.3 35.529 17.65 35.529 34.811a8.88 8.88 0 1 1-17.764 0c0-7.554-7.553-14.127-17.765-16.635v35.119c20.245 3.3 35.529 17.649 35.529 34.81zM131.647 158.294c4.103 0 7.941-1.008 11.415-2.67l12.788 12.787c3.908-4.461 8.1-8.652 12.56-12.56l-12.788-12.787c1.663-3.474 2.672-7.314 2.672-11.417 0-14.694-11.953-26.647-26.647-26.647S105 116.953 105 131.647s11.953 26.647 26.647 26.647zM155.85 343.59l-12.788 12.787c-3.474-1.662-7.312-2.67-11.415-2.67-14.694 0-26.647 11.953-26.647 26.647S116.953 407 131.647 407s26.647-11.953 26.647-26.647c0-4.102-1.008-7.942-2.672-11.417l12.788-12.787c-4.46-3.907-8.652-8.098-12.56-12.559zm200.3-175.18l12.788-12.787c3.474 1.662 7.312 2.67 11.415 2.67 14.694 0 26.647-11.953 26.647-26.647S395.047 105 380.353 105s-26.647 11.953-26.647 26.647c0 4.102 1.008 7.942 2.672 11.417L343.59 155.85c4.46 3.908 8.652 8.099 12.56 12.56zm24.203 185.296c-4.103 0-7.941 1.008-11.415 2.67L356.15 343.59c-3.908 4.461-8.1 8.652-12.56 12.56l12.788 12.787c-1.663 3.474-2.672 7.314-2.672 11.417 0 14.694 11.953 26.647 26.647 26.647S407 395.047 407 380.353s-11.953-26.647-26.647-26.647z" fill="url(#B)"/></svg>