<svg xmlns="http://www.w3.org/2000/svg" height="512" width="512"  xmlns:v="https://vecta.io/nano"><linearGradient id="A" gradientUnits="userSpaceOnUse" x1="256" x2="256" y1="512" y2="0"><stop offset="0" stop-color="#ffe59a"/><stop offset="1" stop-color="#ffffd5"/></linearGradient><linearGradient id="B" gradientUnits="userSpaceOnUse" x1="256" x2="256" y1="105" y2="407"><stop offset="0" stop-color="#fd5900"/><stop offset="1" stop-color="#ffde00"/></linearGradient><circle cx="256" cy="256" fill="url(#A)" r="256"/><path d="M273.765 264.882c44.082 0 79.941-35.859 79.941-79.941S317.847 105 273.765 105s-79.941 35.859-79.941 79.941 35.859 79.941 79.941 79.941zm0-71.059c-14.694 0-26.647-11.953-26.647-26.647 0-11.565 7.448-21.332 17.765-25.011v-10.519a8.88 8.88 0 1 1 17.764 0v10.519c10.317 3.679 17.765 13.446 17.765 25.011a8.88 8.88 0 1 1-17.764 0c0-4.901-3.99-8.882-8.882-8.882s-8.882 3.981-8.882 8.882 3.99 8.882 8.882 8.882c14.694 0 26.647 11.953 26.647 26.647 0 11.565-7.448 21.332-17.765 25.011v10.519a8.88 8.88 0 1 1-17.764 0v-10.519c-10.317-3.679-17.765-13.446-17.765-25.011a8.88 8.88 0 1 1 17.764 0c0 4.901 3.99 8.882 8.882 8.882s8.882-3.981 8.882-8.882-3.99-8.882-8.882-8.882zM105 309.294v88.823c0 4.905 3.977 8.882 8.882 8.882h35.529c4.905 0 8.882-3.977 8.882-8.882v-97.706h-44.412c-4.904.001-8.881 3.977-8.881 8.883zm299.398-6.28l-.039-.039a25.66 25.66 0 0 0-35.504-.743l-53.558 49.14a8.87 8.87 0 0 1-8.05 2.09l-79.594-18.832c-4.771-1.128-7.72-5.907-6.592-10.687 1.11-4.771 5.864-7.729 10.687-6.592l55.278 13.078c13.597 3.217 27.276-5.023 30.776-18.549l.115-.454c1.18-4.753-1.718-9.568-6.471-10.747l-71.059-17.765a8.61 8.61 0 0 0-4.302 0l-60.025 13.5v93.997l132.125 16.518c.382.043.746.069 1.111.069a8.9 8.9 0 0 0 6.28-2.602l88.824-88.823c3.467-3.469 3.467-9.089-.002-12.559z" fill="url(#B)"/></svg>