<svg xmlns="http://www.w3.org/2000/svg" xmlns:xlink="http://www.w3.org/1999/xlink" height="512" width="512"  xmlns:v="https://vecta.io/nano"><linearGradient id="A" gradientUnits="userSpaceOnUse" x1="256" x2="256" y1="512" y2="0"><stop offset="0" stop-color="#addcff"/><stop offset=".503" stop-color="#eaf6ff"/></linearGradient><linearGradient id="B" gradientUnits="userSpaceOnUse"><stop offset="0" stop-color="#00c0ff"/><stop offset="1" stop-color="#5558ff"/></linearGradient><linearGradient id="C" x1="256" x2="256"  xlink:href="#B" y1="416.617" y2="95.941"/><linearGradient id="D" x1="149.143" x2="149.143"  xlink:href="#B" y1="416.617" y2="95.941"/><linearGradient id="E" x1="186.111" x2="186.111"  xlink:href="#B" y1="416.617" y2="95.941"/><linearGradient id="F" x1="325.889" x2="325.889"  xlink:href="#B" y1="416.617" y2="95.941"/><linearGradient id="G" x1="362.857" x2="362.857"  xlink:href="#B" y1="416.617" y2="95.941"/><circle cx="256" cy="256" fill="url(#A)" r="256"/><g fill="url(#C)"><path d="m256 120.488c-14.88 0-30.962 29.007-39.27 72.553h78.541c-8.309-43.546-24.391-72.553-39.271-72.553z"/><path d="m256 391.512c14.88 0 30.962-29.007 39.27-72.553h-78.54c8.308 43.546 24.39 72.553 39.27 72.553z"/></g><path d="m193.041 256c0-15.04.955-30.244 2.745-44.971h-86.516c-4.387 14.226-6.77 29.323-6.77 44.971s2.382 30.745 6.77 44.971h86.516c-1.79-14.727-2.745-29.931-2.745-44.971z" fill="url(#D)"/><path d="m300.971 256c0-15.959-1.059-31.016-2.856-44.971h-84.23c-1.796 13.955-2.856 29.011-2.856 44.971s1.059 31.016 2.856 44.971h84.23c1.796-13.955 2.856-29.012 2.856-44.971z" fill="url(#C)"/><path d="M198.479 318.959h-82.256C140.278 371.916 194.147 409.5 256 409.5c-29.155 0-48.679-40.693-57.521-90.541z" fill="url(#E)"/><path d="M256 409.5c61.853 0 115.722-37.584 139.777-90.541h-82.256C304.679 368.807 285.155 409.5 256 409.5z" fill="url(#F)"/><path d="m316.214 211.029c1.79 14.726 2.745 29.93 2.745 44.971s-.955 30.244-2.745 44.971h86.516c4.387-14.226 6.77-29.323 6.77-44.971s-2.382-30.745-6.77-44.971z" fill="url(#G)"/><path d="m116.223 193.041h82.256c8.842-49.848 28.366-90.541 57.521-90.541-61.853 0-115.722 37.584-139.777 90.541z" fill="url(#E)"/><path d="M395.777 193.041C371.722 140.084 317.853 102.5 256 102.5c29.155 0 48.679 40.693 57.521 90.541z" fill="url(#F)"/></svg>