<svg xmlns="http://www.w3.org/2000/svg" height="512" width="512"  xmlns:v="https://vecta.io/nano"><linearGradient id="A" gradientUnits="userSpaceOnUse" x1="256" x2="256" y1="512" y2="0"><stop offset="0" stop-color="#ffe59a"/><stop offset="1" stop-color="#ffffd5"/></linearGradient><linearGradient id="B" gradientUnits="userSpaceOnUse" x1="256" x2="256" y1="122.765" y2="389.235"><stop offset="0" stop-color="#fd5900"/><stop offset="1" stop-color="#ffde00"/></linearGradient><circle cx="256" cy="256" fill="url(#A)" r="256"/><path d="M398.118 371.471h-8.882v-8.882a8.88 8.88 0 0 0-8.882-8.882H131.647a8.88 8.88 0 0 0-8.882 8.882v8.882h-8.882a8.88 8.88 0 1 0 0 17.764h284.235a8.88 8.88 0 1 0 0-17.764zM113.882 211.588h284.235c4.112 0 7.703-2.836 8.639-6.844.954-4.008-.989-8.145-4.667-9.984l-142.118-71.059c-2.498-1.249-5.447-1.249-7.946 0L109.91 194.76c-3.678 1.839-5.621 5.977-4.667 9.984a8.88 8.88 0 0 0 8.639 6.844zM256 167.177c4.905 0 8.882 3.976 8.882 8.882s-3.977 8.882-8.882 8.882-8.882-3.977-8.882-8.882 3.977-8.882 8.882-8.882zm-49.616 62.176h-60.65l12.56 12.56v81.468l-12.56 12.561h60.65l-12.56-12.561v-81.468zm79.941 0h-60.65l12.56 12.56v81.468l-12.56 12.561h60.65l-12.56-12.561v-81.468zm79.941 0h-60.65l12.56 12.56v81.468l-12.56 12.561h60.65l-12.56-12.561v-81.468z" fill="url(#B)"/></svg>