<svg xmlns="http://www.w3.org/2000/svg" xmlns:xlink="http://www.w3.org/1999/xlink" width="43.02" height="26" xmlns:v="https://vecta.io/nano"><style><![CDATA[.E{fill:#e7e7e7}.F{fill:#dc3027}.G{fill:#f3f4f5}.H{fill:#e73625}]]></style><path d="M22.6 23.68h0zM30.02 0l-.76.02h1.52L30.02 0z" fill="#c42126"/><path d="M33.86 4.75h6.2c-.74-.9-1.6-1.7-2.54-2.36h-4.66c.38.68.7 1.48 1 2.36z" class="E"/><path d="M32.87 2.4h4.66A12.95 12.95 0 0 0 30.78.02h-.4c1.18.15 1.72 1.02 2.5 2.37z" class="F"/><path d="M42.54 9.48c-.23-.82-.54-1.6-.93-2.36h-7.14l.34 2.36h7.73z" class="E"/><path d="M34.07 7.12h7.54a13.38 13.38 0 0 0-1.54-2.37h-6.6c.23.74.43 1.53.6 2.37z" class="F"/><path d="M35.1 14.22h7.87c.04-.4.06-.8.06-1.22l-.05-1.15H35.1v2.37z" class="E"/><path d="M42.97 11.85c-.07-.8-.22-1.6-.43-2.36H34.5l.16 2.36h8.32z" class="F"/><path d="M34.34 18.95h7.24a12.86 12.86 0 0 0 .94-2.37H34.7l-.35 2.37z" class="E"/><path d="M42.52 16.58c.22-.76.37-1.55.44-2.36h-8.12l-.17 2.36h7.85z" class="F"/><path d="M37.43 23.68a13.46 13.46 0 0 0 2.58-2.36h-6.1c-.3.9-.62 1.7-1.02 2.36h4.54z" class="E"/><path d="M33.7 21.3h6.33c.6-.73 1.13-1.52 1.56-2.37h-7.3c-.16.84-.36 1.64-.6 2.37zM29.55 26h-.08.08zm.47 0a12.93 12.93 0 0 0 7.41-2.32h-4.7c-.84 1.44-1.4 2.32-2.7 2.32z" class="F"/><path d="M30.02 26c-.16 0-.3 0-.47-.01h.47z" fill="#c42126"/><path d="M33.3 2.4H22.5c-.95.67-1.8 1.47-2.54 2.36H34.3c-.28-.88-.6-1.68-1-2.36z" class="G"/><path d="M22.5 2.4h10.8C32.54 1.05 31.56.17 30.38.02h-1.12a12.98 12.98 0 0 0-6.75 2.37z" class="H"/><path d="M17.5 9.48h17.72l-.34-2.36H18.43a12.98 12.98 0 0 0-.92 2.36z" class="G"/><path d="M19.97 4.75c-.6.73-1.1 1.52-1.54 2.37h16.45c-.16-.84-.36-1.63-.6-2.37H19.96z" class="H"/><path d="M17.02 13l.06 1.22h18.3v-2.36H17.07L17.02 13z" class="G"/><path d="M17.07 11.85h18.3l-.16-2.36H17.5c-.22.76-.36 1.55-.44 2.36z" class="H"/><path d="M35.22 16.58h-17.7a12.86 12.86 0 0 0 .94 2.37h16.4l.35-2.37z" class="G"/><path d="M17.52 16.58h17.7l.17-2.36h-18.3c.07.8.23 1.6.44 2.36z" class="H"/><path d="M22.6 23.68h10.65c.4-.68.73-1.48 1.02-2.36H20.03a13.17 13.17 0 0 0 2.58 2.36z" class="G"/><path d="M18.46 18.95a13.48 13.48 0 0 0 1.56 2.37h14.25c.24-.73.43-1.53.6-2.37h-16.4zm11 7.05h.55c1.32 0 2.4-.88 3.24-2.32H22.6a12.91 12.91 0 0 0 6.86 2.3z" class="H"/><path d="M29.75.01C23.1.15 17.66 5.3 17.07 11.83h12.68V.01z" fill="#283991"/><g fill="#efefef"><use xlink:href="#A"/><use xlink:href="#B"/><use xlink:href="#B" x="2.16" y="-5.39"/><path d="M21.78 6.3l.2.6h.64l-.52.37.2.62-.52-.38-.52.38.2-.62-.52-.37h.64z"/><use xlink:href="#B" x="2.16" y="-1.08"/><path d="M18 10.04l-.2-.6.52-.38h-.64L17.66 9l-.2.66.01-.01.5.38zm1.1-3.24l.52-.38.52.38-.2-.6.52-.38h-.64l-.2-.6-.2.6h-.24c-.04.07-.1.13-.13.2l.25.18-.2.6zm2.68-3.6l.52.38-.2-.6.52-.38h-.37l-.9.75-.08.24.52-.38zm1.62-.7l.52-.38.52.38-.2-.6.52-.38h-.64l-.03-.08-.64.35.15.1-.2.6z"/><use xlink:href="#A" x="4.31" y="-4.31"/><use xlink:href="#B" x="4.31" y="-4.32"/><use xlink:href="#A" x="4.31"/><use xlink:href="#B" x="4.31"/><use xlink:href="#C"/><use xlink:href="#C" y="2.15"/><path d="M26.1 6.3l.2.6h.65l-.52.37.2.62-.52-.38-.52.38.2-.62-.52-.37h.64z"/><use xlink:href="#C" y="6.46"/><use xlink:href="#B" x="8.62" y="-8.62"/><use xlink:href="#A" x="8.62" y="-4.31"/><use xlink:href="#B" x="8.62" y="-4.32"/><use xlink:href="#A" x="8.62"/><use xlink:href="#B" x="8.62"/></g><path d="M13 0v26c7.18 0 13-5.82 13-13S20.18 0 13 0z" fill="#214391"/><path d="M13 0C5.82 0 0 5.82 0 13s5.82 13 13 13 7.18-26 0-26z" fill="#2b479d"/><path d="M12.98 2.25l.3.98h1.03l-.83.6.32.98-.83-.6-.83.6.3-.98-.83-.6h1.03zm0 18.43l.3.97h1.03l-.83.6.32.97-.83-.6-.83.6.3-.97-.83-.6h1.03zM18.03 3.9l.32.97h1.03l-.83.6.3.97-.83-.6-.83.6.32-.97-.83-.6h1.03zm3.45 3.4l.32.98h1.03l-.83.6.3.98-.83-.6-.83.6.32-.98-.83-.6h1.03zm.1 8.6l.3.98h1.03l-.83.6.32.97-.83-.6-.84.6.32-.97-.83-.6h1.03zM4.6 7.3l.3.98h1.03l-.83.6.32.98-.83-.6-.83.6.3-.98-.83-.6h1.03zm17.68 4.1l.32.98h1.03l-.83.6.3.98-.83-.6-.83.6.32-.98-.83-.6h1.03zm-18.48 0l.32.98h1.03l-.83.6.3.98-.83-.6-.83.6.32-.98-.83-.6H3.5zm.7 4.5l.3.98h1.03l-.83.6.32.97-.83-.6-.83.6.3-.97-.83-.6h1.03zm13.68 3.54l.32.97h1.03l-.83.6.3.97-.83-.6-.83.6.32-.97-.83-.6h1.03zM8.1 3.9l.3.97h1.03l-.83.6.32.97-.83-.6-.83.6.3-.97-.83-.6h1.03zm-.4 15.48l.32.97h1.02l-.83.6.32.98-.83-.6-.83.6.32-.98-.83-.6H7.4z" fill="#f8d12e"/><defs><path id="A" d="M19.62 7.37l.2.6h.64l-.52.37.2.6-.52-.37-.52.37.2-.6-.52-.37h.64z"/><path id="B" d="M19.62 9.52l.2.6h.64l-.52.38.2.6-.52-.38-.52.38.2-.6-.52-.38h.64z"/><path id="C" d="M26.1 1.98l.2.6h.65l-.52.38.2.6-.52-.38-.52.38.2-.6-.52-.38h.64z"/></defs></svg>