<svg xmlns="http://www.w3.org/2000/svg" xmlns:xlink="http://www.w3.org/1999/xlink" width="43.02" height="26" xmlns:v="https://vecta.io/nano"><style><![CDATA[.E{fill:#e7e7e7}.F{fill:#dc3027}.G{fill:#f3f4f5}.H{fill:#e73625}]]></style><circle transform="matrix(1 -.001269 .001269 1 -.0165 .0381)" cx="30.02" cy="13.04" r="13" fill="#fff"/><path d="M17.02 13.04c0 4.9 2.7 9.14 6.68 11.36V1.68c-3.98 2.22-6.68 6.48-6.68 11.36z" fill="#d32027"/><path d="M30.02 26.04c-.15 0-.3-.01-.44-.01l.44.01z" fill="#fff"/><path d="M30.02.04c7.18 0 7.18 26 0 26 2.3 0 4.44-.6 6.3-1.63V1.68C34.46.64 32.3.04 30.02.04z" class="E"/><path d="M36.33 1.68v22.74c4-2.22 6.7-6.48 6.7-11.37 0-4.9-2.7-9.16-6.7-11.37z" fill="#b52025"/><path d="M30.02.04c-2.3 0-4.45.6-6.32 1.64V24.4c1.75.98 3.75 1.56 5.88 1.63l.44.01c7.18 0 7.18-26 0-26z" fill="#f3f1f2"/><path d="M35.07 12.8c-.18-.17-.55-.15-.6-.44-.1-.7.23-1.1.44-1.57-1.02.24-1.83.63-1.83-.52-.6.72-1.22 1.44-1.48 1.3-.37-.22.36-2.07.44-3.05l-1.05.52-.96-1.82-.96 1.82L28 8.54c.08.98.8 2.83.43 3.05-.26.13-.9-.6-1.48-1.3 0 1.16-.8.76-1.83.52.2.47.52.87.44 1.57-.06.28-.43.27-.6.44 1.2 1.2 3.25 2.07 2.27 3.05l2.64-.25c.1.9-.2 2 .05 2.6h.18c.25-.63-.04-1.7.05-2.6l2.64.25c-.97-.98 1.1-1.86 2.28-3.05z" fill="#d32027"/><path d="M5.6 23.68h0zM13 0l-.76.02h1.52L13 0z" fill="#c42126"/><path d="M16.84 4.75h6.2c-.74-.9-1.6-1.7-2.54-2.36h-4.66c.38.68.7 1.48 1 2.36z" class="E"/><path d="M15.84 2.4h4.66A12.95 12.95 0 0 0 13.75.02h-.4c1.2.15 1.73 1.02 2.5 2.37z" class="F"/><path d="M25.52 9.48a12.7 12.7 0 0 0-.92-2.36h-7.14l.34 2.36h7.72z" class="E"/><path d="M17.05 7.12h7.54a13.38 13.38 0 0 0-1.54-2.37h-6.6c.23.74.43 1.53.6 2.37z" class="F"/><path d="M18.07 14.22h7.87c.04-.4.06-.8.06-1.22l-.05-1.15h-7.88v2.37z" class="E"/><path d="M25.95 11.85c-.07-.8-.22-1.6-.43-2.36h-8.05l.16 2.36h8.32z" class="F"/><path d="M17.32 18.95h7.24a12.86 12.86 0 0 0 .94-2.37h-7.83l-.35 2.37z" class="E"/><path d="M25.5 16.58c.22-.76.37-1.55.44-2.36h-8.12l-.17 2.36h7.85z" class="F"/><path d="M20.4 23.68a13.46 13.46 0 0 0 2.58-2.36h-6.1c-.3.9-.62 1.7-1.02 2.36h4.54z" class="E"/><path d="M16.67 21.3H23c.6-.73 1.13-1.52 1.56-2.37h-7.3c-.16.84-.36 1.64-.6 2.37zM12.53 26h-.08.08zm.47 0a12.93 12.93 0 0 0 7.41-2.32h-4.7C14.87 25.12 14.32 26 13 26z" class="F"/><path d="M13 26c-.16 0-.3 0-.47-.01H13z" fill="#c42126"/><path d="M16.28 2.4H5.5c-.95.67-1.8 1.47-2.54 2.36h14.32c-.28-.88-.6-1.68-1-2.36z" class="G"/><path d="M5.5 2.4h10.78C15.5 1.05 14.53.17 13.35.02h-1.12c-2.5.15-4.8 1-6.74 2.37z" class="H"/><path d="M.48 9.48H18.2l-.34-2.36H1.4c-.38.75-.7 1.54-.93 2.36z" class="G"/><path d="M2.95 4.75c-.6.73-1.1 1.52-1.54 2.37h16.45c-.16-.84-.36-1.63-.6-2.37H2.95z" class="H"/><path d="M0 13l.06 1.22h18.3v-2.36H.05L0 13z" class="G"/><path d="M.05 11.85h18.3L18.2 9.5H.48c-.2.76-.36 1.55-.43 2.36z" class="H"/><path d="M18.2 16.58H.5a12.86 12.86 0 0 0 .94 2.37h16.4l.35-2.37z" class="G"/><path d="M.5 16.58h17.7l.17-2.36H.06c.07.8.23 1.6.44 2.36z" class="H"/><path d="M5.6 23.68h10.65c.4-.68.73-1.48 1.02-2.36H3a12.89 12.89 0 0 0 2.58 2.36z" class="G"/><path d="M1.44 18.95A13.48 13.48 0 0 0 3 21.32h14.25c.24-.73.43-1.53.6-2.37H1.44zm11 7.05H13c1.32 0 2.4-.88 3.24-2.32H5.6a12.85 12.85 0 0 0 6.86 2.3z" class="H"/><path d="M12.73.01C6.07.14.64 5.3.06 11.83h12.68L12.73.01z" fill="#283991"/><g fill="#efefef"><use xlink:href="#A"/><use xlink:href="#B"/><path d="M4.76 4.13l.2.6h.65l-.52.38.2.6-.5-.38-.52.38.2-.6-.52-.38h.64zm0 2.17l.2.6h.65l-.52.37.2.62-.5-.38-.52.38.2-.62-.52-.37h.64zm0 2.14l.2.6h.65l-.52.38.2.6-.5-.38-.52.38.2-.6-.52-.38h.64zm-3.8 1.6l-.2-.6.52-.38H.64L.63 9l-.2.66.01-.01.52.38zm1.1-3.24l.52-.38.52.38-.2-.6.52-.38H2.8l-.2-.6-.2.6h-.23c-.04.07-.1.13-.13.2l.24.18-.2.6zm2.68-3.6l.52.38-.2-.6.52-.38H5.2l-.9.75-.07.24.52-.38zm1.64-.7l.52-.38.52.38-.2-.6.52-.38H7.1l-.03-.08-.64.35.15.1-.2.6z"/><use xlink:href="#A" x="4.3" y="-4.31"/><use xlink:href="#B" x="4.3" y="-4.32"/><use xlink:href="#A" x="4.3"/><use xlink:href="#B" x="4.3"/><use xlink:href="#C"/><use xlink:href="#C" y="2.15"/><path d="M9.07 6.3l.2.6h.65l-.52.37.2.62-.5-.38-.52.38.2-.62-.5-.37h.64z"/><use xlink:href="#C" y="6.46"/><use xlink:href="#B" x="8.62" y="-8.62"/><use xlink:href="#A" x="8.62" y="-4.31"/><use xlink:href="#B" x="8.62" y="-4.32"/><use xlink:href="#A" x="8.62"/><use xlink:href="#B" x="8.62"/></g><defs><path id="A" d="M2.6 7.37l.2.6h.64l-.52.37.2.6-.52-.37-.52.37.2-.6-.52-.37h.64z"/><path id="B" d="M2.6 9.52l.2.6h.64l-.52.38.2.6-.52-.38-.52.38.2-.6-.52-.38h.64z"/><path id="C" d="M9.07 1.98l.2.6h.65l-.52.38.2.6-.5-.38-.52.38.2-.6-.5-.38h.64z"/></defs></svg>