<?xml version="1.0" encoding="utf-8"?>
<!-- Generator: Adobe Illustrator 24.3.0, SVG Export Plug-In . SVG Version: 6.00 Build 0)  -->
<!DOCTYPE svg PUBLIC "-//W3C//DTD SVG 1.1//EN" "http://www.w3.org/Graphics/SVG/1.1/DTD/svg11.dtd" [
	<!ENTITY ns_extend "http://ns.adobe.com/Extensibility/1.0/">
	<!ENTITY ns_ai "http://ns.adobe.com/AdobeIllustrator/10.0/">
	<!ENTITY ns_graphs "http://ns.adobe.com/Graphs/1.0/">
	<!ENTITY ns_vars "http://ns.adobe.com/Variables/1.0/">
	<!ENTITY ns_imrep "http://ns.adobe.com/ImageReplacement/1.0/">
	<!ENTITY ns_sfw "http://ns.adobe.com/SaveForWeb/1.0/">
	<!ENTITY ns_custom "http://ns.adobe.com/GenericCustomNamespace/1.0/">
	<!ENTITY ns_adobe_xpath "http://ns.adobe.com/XPath/1.0/">
]>
<svg version="1.1"
	 id="Layer_1" xmlns:x="&ns_extend;" xmlns:i="&ns_ai;" xmlns:graph="&ns_graphs;" xmlns:v="https://vecta.io/nano"
	 xmlns="http://www.w3.org/2000/svg" xmlns:xlink="http://www.w3.org/1999/xlink" x="0px" y="0px" width="500px" height="396.8px"
	 viewBox="0 0 500 396.8" style="enable-background:new 0 0 500 396.8;" xml:space="preserve">
<style type="text/css">
	.st0{enable-background:new    ;}
	.st1{opacity:0.18;fill:#FC5B3F;enable-background:new    ;}
	.st2{fill:#DC9BD5;}
</style>
<metadata>
	<sfw  xmlns="&ns_sfw;">
		<slices></slices>
		<sliceSourceBounds  bottomLeftOrigin="true" height="396.8" width="500" x="0" y="0"></sliceSourceBounds>
	</sfw>
</metadata>
<g class="st0">
	<path class="st1" d="M84.4,386c-18.1-3-35.2-10.6-49.6-22c-17-13.3-35.4-31.3-34.8-53.6c0.6-23.7,9.4-46.4,19.2-67.7
		c12.9-28.8,30.9-59.1,26.1-91.1c-4.7-31.5,1.6-70.3,18.5-97.5c26.7-42.6,73.3-53,120-54c30.8-0.6,62.5,1.2,90.6,13.9
		c29.5,13.3,53.1,38,83.3,49.4c20,7.5,41.8,9,61.4,17.5c24.6,10.7,43.6,31.9,55.9,55.7c12.3,23.9,18.5,50.3,23.2,76.6
		c7.8,44.5-10.7,100-37.4,136.4C442.9,374,413.1,402,382.4,396C226.7,366.3,256.6,413.8,84.4,386L84.4,386z"/>
</g>
<path class="st2" d="M194.8,210.2l-0.4-0.4l2.6,3C196.4,212,195.6,211.1,194.8,210.2L194.8,210.2z"/>
</svg>
