<svg xmlns="http://www.w3.org/2000/svg" height="512" width="512"  xmlns:v="https://vecta.io/nano"><linearGradient id="A" gradientUnits="userSpaceOnUse" x1="256" x2="256" y1="512" y2="0"><stop offset="0" stop-color="#ffbef9"/><stop offset="1" stop-color="#fff1ff"/></linearGradient><linearGradient id="B" gradientUnits="userSpaceOnUse" x1="256" x2="256" y1="389.5" y2="122.5"><stop offset="0" stop-color="#ff81ff"/><stop offset="1" stop-color="#a93aff"/></linearGradient><circle cx="256" cy="256" fill="url(#A)" r="256"/><path d="M398.118 371.7H113.882c-4.975 0-8.882 3.915-8.882 8.9s3.908 8.9 8.882 8.9h284.235a8.8 8.8 0 0 0 8.882-8.9c.001-4.985-3.907-8.9-8.881-8.9zm-239.824-44.5a8.8 8.8 0 0 1 8.882-8.9h35.529a8.8 8.8 0 0 1 8.882 8.9v26.7h35.529V131.4c0-4.919-3.973-8.9-8.882-8.9H131.647c-4.91 0-8.882 3.98-8.882 8.9v222.5h35.529zm8.882-169.1h35.529c4.91 0 8.882 3.98 8.882 8.9s-3.973 8.9-8.882 8.9h-35.529c-4.91 0-8.882-3.98-8.882-8.9s3.973-8.9 8.882-8.9zm0 35.6h35.529c4.91 0 8.882 3.98 8.882 8.9s-3.973 8.9-8.882 8.9h-35.529c-4.91 0-8.882-3.98-8.882-8.9s3.973-8.9 8.882-8.9zm0 35.6h35.529c4.91 0 8.882 3.981 8.882 8.9s-3.973 8.9-8.882 8.9h-35.529c-4.91 0-8.882-3.981-8.882-8.9s3.973-8.9 8.882-8.9zm0 35.6h35.529c4.91 0 8.882 3.981 8.882 8.9s-3.973 8.9-8.882 8.9h-35.529c-4.91 0-8.882-3.981-8.882-8.9s3.973-8.9 8.882-8.9zm133.236 62.3a8.8 8.8 0 0 1 8.882-8.9h35.529a8.8 8.8 0 0 1 8.882 8.9v26.7h35.53V202.6c0-4.919-3.973-8.9-8.882-8.9H273.765c-4.91 0-8.882 3.98-8.882 8.9v151.3h35.529zm8.882-97.9h35.529c4.91 0 8.882 3.981 8.882 8.9s-3.973 8.9-8.882 8.9h-35.529c-4.91 0-8.882-3.981-8.882-8.9s3.973-8.9 8.882-8.9zm0 35.6h35.529c4.91 0 8.882 3.981 8.882 8.9s-3.973 8.9-8.882 8.9h-35.529c-4.91 0-8.882-3.981-8.882-8.9s3.973-8.9 8.882-8.9z" fill="url(#B)"/></svg>