<svg xmlns="http://www.w3.org/2000/svg" height="512" width="512"  xmlns:v="https://vecta.io/nano"><linearGradient id="A" gradientUnits="userSpaceOnUse" x1="256" x2="256" y1="512" y2="0"><stop offset="0" stop-color="#ffc8d1"/><stop offset="1" stop-color="#fff6f7"/></linearGradient><linearGradient id="B" gradientUnits="userSpaceOnUse" x1="256" x2="256" y1="407" y2="105"><stop offset="0" stop-color="#ffa68d"/><stop offset="1" stop-color="#fd3a84"/></linearGradient><circle cx="256" cy="256" fill="url(#A)" r="256"/><path d="M256 105c-83.263 0-151 67.737-151 151s67.737 151 151 151 151-67.737 151-151-67.737-151-151-151zm-44.412 71.059c19.595 0 35.529 15.934 35.529 35.529s-15.935 35.53-35.529 35.53-35.529-15.935-35.529-35.53 15.934-35.529 35.529-35.529zm88.824 159.882c-19.595 0-35.529-15.934-35.529-35.53s15.935-35.529 35.529-35.529 35.529 15.935 35.529 35.529-15.934 35.53-35.529 35.53zm32.927-144.72L191.221 333.339a8.85 8.85 0 0 1-12.56 0 8.88 8.88 0 0 1 0-12.56l142.118-142.118a8.88 8.88 0 1 1 12.56 12.56z" fill="url(#B)"/></svg>