<svg xmlns="http://www.w3.org/2000/svg" height="512" width="512"  xmlns:v="https://vecta.io/nano"><linearGradient id="A" gradientUnits="userSpaceOnUse" x1="256" x2="256" y1="512" y2="0"><stop offset="0" stop-color="#ffe59a"/><stop offset="1" stop-color="#ffffd5"/></linearGradient><linearGradient id="B" gradientUnits="userSpaceOnUse" x1="256" x2="256" y1="407" y2="105"><stop offset="0" stop-color="#ffde00"/><stop offset="1" stop-color="#fd5900"/></linearGradient><circle cx="256" cy="256" fill="url(#A)" r="256"/><path d="M326.897 300.412h-17.724c-17.457 0-33.083 7.391-44.311 19.101v-32.767l22.052-18.827C328.811 232.476 362 205.625 362 166.725c0-34.61-25.219-61.725-57.431-61.725-25.236 0-40.295 15.978-48.569 29.64-8.274-13.662-23.332-29.64-48.569-29.64C175.219 105 150 132.115 150 166.725c0 37.663 29.875 62.94 75.086 101.184l22.052 18.835v32.768c-11.228-11.709-26.854-19.101-44.311-19.101h-17.724a8.87 8.87 0 0 0-8.862 8.882c0 34.28 27.833 62.176 62.035 62.176h8.862v26.647c0 4.91 3.964 8.882 8.862 8.882a8.87 8.87 0 0 0 8.862-8.882v-26.647h8.862c34.202 0 62.035-27.896 62.035-62.176.001-4.908-3.963-8.881-8.862-8.881z" fill="url(#B)"/></svg>