<?xml version="1.0" encoding="utf-8"?>
<!-- Generator: Adobe Illustrator 24.3.0, SVG Export Plug-In . SVG Version: 6.00 Build 0)  -->
<!DOCTYPE svg PUBLIC "-//W3C//DTD SVG 1.1//EN" "http://www.w3.org/Graphics/SVG/1.1/DTD/svg11.dtd" [
	<!ENTITY ns_extend "http://ns.adobe.com/Extensibility/1.0/">
	<!ENTITY ns_ai "http://ns.adobe.com/AdobeIllustrator/10.0/">
	<!ENTITY ns_graphs "http://ns.adobe.com/Graphs/1.0/">
	<!ENTITY ns_vars "http://ns.adobe.com/Variables/1.0/">
	<!ENTITY ns_imrep "http://ns.adobe.com/ImageReplacement/1.0/">
	<!ENTITY ns_sfw "http://ns.adobe.com/SaveForWeb/1.0/">
	<!ENTITY ns_custom "http://ns.adobe.com/GenericCustomNamespace/1.0/">
	<!ENTITY ns_adobe_xpath "http://ns.adobe.com/XPath/1.0/">
]>
<svg version="1.1"
	 id="Layer_1" xmlns:x="&ns_extend;" xmlns:i="&ns_ai;" xmlns:graph="&ns_graphs;" xmlns:v="https://vecta.io/nano"
	 xmlns="http://www.w3.org/2000/svg" xmlns:xlink="http://www.w3.org/1999/xlink" x="0px" y="0px" width="406px" height="306px"
	 viewBox="0 0 406 306" style="enable-background:new 0 0 406 306;" xml:space="preserve">
<style type="text/css">
	.st0{opacity:0.18;fill:#FC5B3F;enable-background:new    ;}
</style>
<metadata>
	<sfw  xmlns="&ns_sfw;">
		<slices></slices>
		<sliceSourceBounds  bottomLeftOrigin="true" height="300.1" width="406" x="0" y="3"></sliceSourceBounds>
	</sfw>
</metadata>
<path class="st0" d="M185.7,5.5c11.1,1.7,21.8,5,32,9.7c14.1,6.7,25.7,17.1,38.9,25.1c22.5,13.7,49.5,21.5,75.1,26.9
	c10.2,2.2,20.6,4.2,29.8,9c14.1,7.5,24.1,21,31.2,35.4c15.3,31.5,18.2,69.8,4.5,102.1c-13.4,31.5-43.9,58-78.5,61.4
	c-43.7,4.5-87.5,13.1-131.3,18.5c-30.4,4.5-61,9-91.8,9.4c-12.8,0.1-25.9-0.5-38.1-4.6C34.6,290.6,14,274.5,5,251.6
	c-7.3-18.8-6.6-39.7,1.8-58c5.1-11.1,13.1-20.9,16.8-32.6c3.4-10.5,3-21.7,2.5-32.6c-0.6-10.2,0.6-20.3,3.8-30
	c6.1-19.8,15.6-38.8,29.1-54.5C75.6,24.4,98.5,9.8,123.7,5.1c9.8-1.6,19.6-2.3,29.5-2.1C164.1,3,174.9,3.8,185.7,5.5z"/>
<g>
</g>
</svg>
