<?xml version="1.0" encoding="utf-8"?>
<!-- Generator: Adobe Illustrator 24.3.0, SVG Export Plug-In . SVG Version: 6.00 Build 0)  -->
<!DOCTYPE svg PUBLIC "-//W3C//DTD SVG 1.1//EN" "http://www.w3.org/Graphics/SVG/1.1/DTD/svg11.dtd" [
	<!ENTITY ns_extend "http://ns.adobe.com/Extensibility/1.0/">
	<!ENTITY ns_ai "http://ns.adobe.com/AdobeIllustrator/10.0/">
	<!ENTITY ns_graphs "http://ns.adobe.com/Graphs/1.0/">
	<!ENTITY ns_vars "http://ns.adobe.com/Variables/1.0/">
	<!ENTITY ns_imrep "http://ns.adobe.com/ImageReplacement/1.0/">
	<!ENTITY ns_sfw "http://ns.adobe.com/SaveForWeb/1.0/">
	<!ENTITY ns_custom "http://ns.adobe.com/GenericCustomNamespace/1.0/">
	<!ENTITY ns_adobe_xpath "http://ns.adobe.com/XPath/1.0/">
]>
<svg version="1.1"
	 id="Layer_1" xmlns:x="&ns_extend;" xmlns:i="&ns_ai;" xmlns:graph="&ns_graphs;" xmlns:v="https://vecta.io/nano"
	 xmlns="http://www.w3.org/2000/svg" xmlns:xlink="http://www.w3.org/1999/xlink" x="0px" y="0px" width="500px" height="393.7px"
	 viewBox="0 0 500 393.7" style="enable-background:new 0 0 500 393.7;" xml:space="preserve">
<style type="text/css">
	.st0{opacity:0.18;fill:#FC5B3F;enable-background:new    ;}
	.st1{fill:url(#SVGID_1_);}
</style>
<metadata>
	<sfw  xmlns="&ns_sfw;">
		<slices></slices>
		<sliceSourceBounds  bottomLeftOrigin="true" height="393.7" width="500" x="0" y="0"></sliceSourceBounds>
	</sfw>
</metadata>
<path class="st0" d="M481.3,238.3c-2.1-3.9-4.3-7.8-6.6-11.6l-6.7-10.6c-10.1-15.1-21.3-30-26.2-47.5c-6.1-21.6,0-45.6-6.5-66.6
	c-5.6-18.2-22.5-37.2-35.2-50.7C371.7,21.3,333.3-0.5,291.3,0c-8.1,0.1-16.1,1-24.1,2.5c-15.7,2.9-31.2,7.8-46.4,13
	c-38.5,13-77.1,27.6-110.1,51.3S50.5,124.6,43,164.6c-3.9,20.6-2.5,42.4-9.2,62.3c-8,23.9-25.8,39.5-31.5,64.3
	c-6.5,28.5,0.3,62.2,24.2,79.1c12.4,8.8,28,12,43,13.8c37.9,4.4,76.3,0.7,112.7-10.8c20.5-6.5,40.8-15.6,62.3-15.7
	c23.2-0.1,44.9,10.2,66.5,18.6c33.2,12.7,69,21.4,104,15.8s69-28,80.5-61.5C506,300.1,496.8,267.4,481.3,238.3z"/>
<linearGradient id="SVGID_1_" gradientUnits="userSpaceOnUse" x1="264.3427" y1="44.1163" x2="268.7007" y2="40.8623" gradientTransform="matrix(1 0 0 -1 0 394)">
	<stop  offset="1.000000e-02" style="stop-color:#000000"/>
	<stop  offset="8.000000e-02" style="stop-color:#000000;stop-opacity:0.69"/>
	<stop  offset="0.21" style="stop-color:#000000;stop-opacity:0.32"/>
	<stop  offset="1" style="stop-color:#000000;stop-opacity:0"/>
</linearGradient>
<path class="st1" d="M265.5,350.9l1,0.1C267.2,351.6,265.2,351.7,265.5,350.9z"/>
</svg>
