<?xml version="1.0" encoding="utf-8"?>
<!-- Generator: Adobe Illustrator 24.3.0, SVG Export Plug-In . SVG Version: 6.00 Build 0)  -->
<!DOCTYPE svg PUBLIC "-//W3C//DTD SVG 1.1//EN" "http://www.w3.org/Graphics/SVG/1.1/DTD/svg11.dtd" [
	<!ENTITY ns_extend "http://ns.adobe.com/Extensibility/1.0/">
	<!ENTITY ns_ai "http://ns.adobe.com/AdobeIllustrator/10.0/">
	<!ENTITY ns_graphs "http://ns.adobe.com/Graphs/1.0/">
	<!ENTITY ns_vars "http://ns.adobe.com/Variables/1.0/">
	<!ENTITY ns_imrep "http://ns.adobe.com/ImageReplacement/1.0/">
	<!ENTITY ns_sfw "http://ns.adobe.com/SaveForWeb/1.0/">
	<!ENTITY ns_custom "http://ns.adobe.com/GenericCustomNamespace/1.0/">
	<!ENTITY ns_adobe_xpath "http://ns.adobe.com/XPath/1.0/">
]>
<svg version="1.1"
	 id="Layer_1" xmlns:x="&ns_extend;" xmlns:i="&ns_ai;" xmlns:graph="&ns_graphs;" xmlns:v="https://vecta.io/nano"
	 xmlns="http://www.w3.org/2000/svg" xmlns:xlink="http://www.w3.org/1999/xlink" x="0px" y="0px" width="350px" height="295.6px"
	 viewBox="0 0 350 295.6" style="enable-background:new 0 0 350 295.6;" xml:space="preserve">
<style type="text/css">
	.st0{opacity:0.18;fill:#FC5B3F;enable-background:new    ;}
</style>
<metadata>
	<sfw  xmlns="&ns_sfw;">
		<slices></slices>
		<sliceSourceBounds  bottomLeftOrigin="true" height="258.7" width="350" x="0.1" y="-0.6"></sliceSourceBounds>
	</sfw>
</metadata>
<path class="st0" d="M211.3,40.2c13.4,2.9,26.8,7,38.3,14.5c31.2,20.5,42,60.9,66.9,88.8c10.9,12.1,24.7,22.4,30.5,37.7
	c4.5,12.1,3.3,25.5,1.2,38.3c-1.9,11.8-4.4,23.4-7.6,34.9c-1.9,7.1-4.1,14.2-8.2,20.3c-12.3,18.2-37.5,21.6-59.4,21.5
	c-22.4-0.2-44.9-2.5-66.9-6.8c-11-2.2-22.1-4.8-33.3-5.6c-24.3-1.7-48.3,5.4-72.4,9.6s-50.5,5.2-71.3-7.6
	c-16.1-10.1-26.7-27.1-28.7-46c-1.3-13.7,2-27.2,5.6-40.5c4.6-17,9.7-33.9,15.2-50.8c4.3-12.9,8.9-25.9,15.9-37.7
	C68.3,58.5,154.1,27.9,211.3,40.2L211.3,40.2z"/>
</svg>
