<svg xmlns="http://www.w3.org/2000/svg" height="512" width="512"  xmlns:v="https://vecta.io/nano"><linearGradient id="A" gradientUnits="userSpaceOnUse" x1="256" x2="256" y1="512" y2="0"><stop offset="0" stop-color="#ffc8d1"/><stop offset="1" stop-color="#fff6f7"/></linearGradient><linearGradient id="B" gradientUnits="userSpaceOnUse" x1="256" x2="256" y1="105" y2="407"><stop offset="0" stop-color="#fd3a84"/><stop offset="1" stop-color="#ffa68d"/></linearGradient><circle cx="256" cy="256" fill="url(#A)" r="256"/><path d="M273.765 211.588h-37.056a26.42 26.42 0 0 1 1.527 8.882v26.647h35.529c9.802 0 17.765-7.972 17.765-17.765s-7.964-17.764-17.765-17.764zm0 53.294h-35.529v26.647c0 3.129-.641 6.09-1.636 8.882h37.166c9.802 0 17.765-7.971 17.765-17.765a17.79 17.79 0 0 0-17.766-17.764zM256 158.294c-53.867 0-97.706 43.831-97.706 97.706s43.839 97.706 97.706 97.706 97.706-43.831 97.706-97.706-43.839-97.706-97.706-97.706zm53.294 124.353c0 16.509-11.37 30.296-26.647 34.268v10.144a8.88 8.88 0 1 1-17.764 0v-8.882h-17.765v8.882a8.88 8.88 0 1 1-17.764 0v-8.882h-17.765a8.88 8.88 0 1 1 0-17.764c4.892 0 8.882-3.981 8.882-8.882v-71.059c0-4.901-3.99-8.882-8.882-8.882a8.88 8.88 0 1 1 0-17.765h17.765v-8.882a8.88 8.88 0 1 1 17.764 0v8.882h17.765v-8.882a8.88 8.88 0 1 1 17.764 0v10.144c15.277 3.972 26.647 17.758 26.647 34.268 0 10.663-4.819 20.13-12.28 26.647 7.462 6.515 12.28 15.982 12.28 26.645zM256 105c-83.255 0-151 67.736-151 151s67.745 151 151 151 151-67.737 151-151-67.745-151-151-151zm0 266.471c-63.668 0-115.471-51.802-115.471-115.471S192.332 140.529 256 140.529 371.471 192.332 371.471 256 319.668 371.471 256 371.471z" fill="url(#B)"/></svg>