<svg version="1.1" id="Layer_1" xmlns="http://www.w3.org/2000/svg" x="0" y="0" viewBox="0 0 256 256.1" xml:space="preserve"><linearGradient id="SVGID_1_" gradientUnits="userSpaceOnUse" x1="63.35" y1="-54.05" x2="241.643" y2="-54.05" gradientTransform="translate(-4.63 231.08)"><stop offset="0" stop-color="#0c59a4"/><stop offset="1" stop-color="#114a8b"/></linearGradient><path d="M231.1 190.5c-3.4 1.8-6.9 3.4-10.5 4.7-11.5 4.3-23.6 6.5-35.9 6.5-47.3 0-88.5-32.6-88.5-74.3.1-11.4 6.4-21.9 16.4-27.3-42.8 1.8-53.8 46.4-53.8 72.5 0 73.9 68.1 81.4 82.8 81.4 7.9 0 19.8-2.3 27-4.6l1.3-.4c27.6-9.5 51-28.1 66.6-52.8 1.2-1.9.6-4.3-1.2-5.5-1.4-.8-2.9-.9-4.2-.2z" fill="url(#SVGID_1_)"/><radialGradient id="SVGID_2_" cx="161.85" cy="-45.226" r="95.38" gradientTransform="matrix(1 0 0 .95 -4.63 221.42)" gradientUnits="userSpaceOnUse"><stop offset=".72" stop-opacity="0"/><stop offset=".95" stop-opacity=".53"/><stop offset="1"/></radialGradient><path d="M231.1 190.5c-3.4 1.8-6.9 3.4-10.5 4.7-11.5 4.3-23.6 6.5-35.9 6.5-47.3 0-88.5-32.6-88.5-74.3.1-11.4 6.4-21.9 16.4-27.3-42.8 1.8-53.8 46.4-53.8 72.5 0 73.9 68.1 81.4 82.8 81.4 7.9 0 19.8-2.3 27-4.6l1.3-.4c27.6-9.5 51-28.1 66.6-52.8 1.2-1.9.6-4.3-1.2-5.5-1.4-.8-2.9-.9-4.2-.2z" opacity=".35" fill="url(#SVGID_2_)"/><linearGradient id="SVGID_3_" gradientUnits="userSpaceOnUse" x1="157.428" y1="-131.337" x2="46.038" y2="-10.007" gradientTransform="translate(-4.63 231.08)"><stop offset="0" stop-color="#1b9de2"/><stop offset=".16" stop-color="#1595df"/><stop offset=".67" stop-color="#0680d7"/><stop offset="1" stop-color="#0078d4"/></linearGradient><path d="M105.7 241.4c-8.9-5.5-16.6-12.8-22.7-21.3-26.3-36-18.4-86.5 17.6-112.8 3.8-2.7 7.7-5.2 11.9-7.2 3.1-1.5 8.4-4.1 15.5-4 10.1.1 19.6 4.9 25.7 13 4 5.4 6.3 11.9 6.4 18.7 0-.2 24.5-79.6-80-79.6-43.9 0-80 41.7-80 78.2-.2 19.3 4 38.5 12.1 56 27.6 58.8 94.8 87.6 156.4 67.1-21.1 6.6-44 3.7-62.9-8.1z" fill="url(#SVGID_3_)"/><radialGradient id="SVGID_4_" cx="-167.233" cy="-13.434" r="143.24" gradientTransform="matrix(.15 -.99 .8 .12 106.427 35.06)" gradientUnits="userSpaceOnUse"><stop offset=".76" stop-opacity="0"/><stop offset=".95" stop-opacity=".5"/><stop offset="1"/></radialGradient><path d="M105.7 241.4c-8.9-5.5-16.6-12.8-22.7-21.3-26.3-36-18.4-86.5 17.6-112.8 3.8-2.7 7.7-5.2 11.9-7.2 3.1-1.5 8.4-4.1 15.5-4 10.1.1 19.6 4.9 25.7 13 4 5.4 6.3 11.9 6.4 18.7 0-.2 24.5-79.6-80-79.6-43.9 0-80 41.7-80 78.2-.2 19.3 4 38.5 12.1 56 27.6 58.8 94.8 87.6 156.4 67.1-21.1 6.6-44 3.7-62.9-8.1z" opacity=".41" fill="url(#SVGID_4_)"/><radialGradient id="SVGID_5_" cx="59.97" cy="-387.958" r="202.43" gradientTransform="matrix(-.04 1 -2.13 -.08 -798.09 -43.63)" gradientUnits="userSpaceOnUse"><stop offset="0" stop-color="#35c1f1"/><stop offset=".11" stop-color="#34c1ed"/><stop offset=".23" stop-color="#2fc2df"/><stop offset=".31" stop-color="#2bc3d2"/><stop offset=".67" stop-color="#36c752"/></radialGradient><path d="M152.3 148.9c-.8 1.1-3.3 2.5-3.3 5.7 0 2.6 1.7 5.1 4.7 7.2 14.4 10 41.5 8.7 41.6 8.7 10.7 0 21.1-2.9 30.3-8.4 18.8-11 30.4-31.1 30.4-52.9.3-22.4-8-37.3-11.3-43.9C223.5 23.8 177.7 0 128 0 58 0 1 56.2 0 126.2c.5-36.5 36.8-66.1 80-66.1 3.5 0 23.5.3 42 10.1 16.3 8.6 24.9 18.9 30.9 29.2 6.2 10.7 7.3 24.1 7.3 29.5s-2.8 13.4-7.9 20z" fill="url(#SVGID_5_)"/><radialGradient id="SVGID_6_" cx="307.338" cy="-383.735" r="97.34" gradientTransform="matrix(.28 .96 -.78 .23 -145.296 -129.38)" gradientUnits="userSpaceOnUse"><stop offset="0" stop-color="#66eb6e"/><stop offset="1" stop-color="#66eb6e" stop-opacity="0"/></radialGradient><path d="M152.3 148.9c-.8 1.1-3.3 2.5-3.3 5.7 0 2.6 1.7 5.1 4.7 7.2 14.4 10 41.5 8.7 41.6 8.7 10.7 0 21.1-2.9 30.3-8.4 18.8-11 30.4-31.1 30.4-52.9.3-22.4-8-37.3-11.3-43.9C223.5 23.8 177.7 0 128 0 58 0 1 56.2 0 126.2c.5-36.5 36.8-66.1 80-66.1 3.5 0 23.5.3 42 10.1 16.3 8.6 24.9 18.9 30.9 29.2 6.2 10.7 7.3 24.1 7.3 29.5s-2.8 13.4-7.9 20z" fill="url(#SVGID_6_)"/></svg>