<svg version="1.1" id="Layer_1" xmlns="http://www.w3.org/2000/svg" x="0" y="0" viewBox="0 0 255 263.4" xml:space="preserve"><linearGradient id="path980_1_" gradientUnits="userSpaceOnUse" x1="225.182" y1="223.202" x2="13.238" y2="18.716" gradientTransform="matrix(1 0 0 -1 3.7 263.996)"><stop offset=".048" stop-color="#fff44f"/><stop offset=".111" stop-color="#ffe847"/><stop offset=".225" stop-color="#ffc830"/><stop offset=".368" stop-color="#ff980e"/><stop offset=".401" stop-color="#ff8b16"/><stop offset=".462" stop-color="#ff672a"/><stop offset=".534" stop-color="#ff3647"/><stop offset=".705" stop-color="#e31587"/></linearGradient><path id="path980" fill="url(#path980_1_)" d="M245.8 88.4C240.3 75 229 60.6 220.2 56.1c6.3 12.2 10.6 25.2 12.9 38.8v.2c-14.4-36-38.9-50.5-58.9-82.1-1-1.6-2-3.2-3-4.9-.6-1-1-1.8-1.4-2.6-.8-1.6-1.5-3.3-1.9-5.1 0-.2-.1-.3-.3-.3h-.4V0c-32.1 18.8-42.9 53.5-44 70.9-12.8.9-25.1 5.6-35.1 13.5-1.1-.9-2.2-1.7-3.3-2.5-2.9-10.2-3-21-.4-31.2-11.8 5.7-22.2 13.8-30.7 23.8h-.1c-5.1-6.4-4.7-27.6-4.4-32-1.5.6-2.9 1.4-4.3 2.3-4.5 3.2-8.6 6.8-12.5 10.7-4.4 4.4-8.4 9.2-11.9 14.3-8.2 11.6-14 24.8-17.1 38.7l-.2.8c-.2 1.1-1.1 6.7-1.3 8v.3C1 123.4.3 129.3 0 135.2v.7c.1 70.5 57.3 127.6 127.8 127.6 62.1-.1 115.2-44.8 125.7-106 .2-1.6.4-3.3.6-4.9 2.6-21.8-.2-43.9-8.3-64.2zM98.6 188.3l1.8.9.1.1c-.6-.4-1.2-.7-1.9-1zm134.5-93.2V95v.1z"/><radialGradient id="path982_1_" cx="-7759.594" cy="8758.761" r="266.159" gradientTransform="matrix(1 0 0 -1 7978.7 8787.996)" gradientUnits="userSpaceOnUse"><stop offset=".129" stop-color="#ffbd4f"/><stop offset=".186" stop-color="#ffac31"/><stop offset=".247" stop-color="#ff9d17"/><stop offset=".283" stop-color="#ff980e"/><stop offset=".403" stop-color="#ff563b"/><stop offset=".467" stop-color="#ff3750"/><stop offset=".71" stop-color="#f5156c"/><stop offset=".782" stop-color="#eb0878"/><stop offset=".86" stop-color="#e50080"/></radialGradient><path id="path982" fill="url(#path982_1_)" d="M245.8 88.4C240.3 75 229 60.6 220.2 56.1c6.3 12.2 10.6 25.2 12.9 38.8v.2c9.8 28.2 8.4 59-4 86.2-14.6 31.4-50.1 63.6-105.5 62C63.8 241.6 11 197.1 1.1 138.9c-1.8-9.2 0-13.8.9-21.3-1.2 5.8-1.9 11.7-2.1 17.6v.7c.1 70.5 57.3 127.6 127.8 127.6 62.1-.1 115.2-44.8 125.7-106 .2-1.6.4-3.3.6-4.9 2.7-21.8-.1-43.9-8.2-64.2z"/><radialGradient id="path984_1_" cx="-7856.851" cy="8649.946" r="266.159" gradientTransform="matrix(1 0 0 -1 7978.7 8787.996)" gradientUnits="userSpaceOnUse"><stop offset=".3" stop-color="#960e18"/><stop offset=".351" stop-color="#b11927" stop-opacity=".74"/><stop offset=".435" stop-color="#db293d" stop-opacity=".343"/><stop offset=".497" stop-color="#f5334b" stop-opacity=".094"/><stop offset=".53" stop-color="#ff3750" stop-opacity="0"/></radialGradient><path id="path984" fill="url(#path984_1_)" d="M245.8 88.4C240.3 75 229 60.6 220.2 56.1c6.3 12.2 10.6 25.2 12.9 38.8v.2c9.8 28.2 8.4 59-4 86.2-14.6 31.4-50.1 63.6-105.5 62C63.8 241.6 11 197.1 1.1 138.9c-1.8-9.2 0-13.8.9-21.3-1.2 5.8-1.9 11.7-2.1 17.6v.7c.1 70.5 57.3 127.6 127.8 127.6 62.1-.1 115.2-44.8 125.7-106 .2-1.6.4-3.3.6-4.9 2.7-21.8-.1-43.9-8.2-64.2z"/><radialGradient id="path986_1_" cx="-7824.762" cy="8819.162" r="192.816" gradientTransform="matrix(1 0 0 -1 7978.7 8787.996)" gradientUnits="userSpaceOnUse"><stop offset=".132" stop-color="#fff44f"/><stop offset=".252" stop-color="#ffdc3e"/><stop offset=".506" stop-color="#ff9d12"/><stop offset=".526" stop-color="#ff980e"/></radialGradient><path id="path986" fill="url(#path986_1_)" d="M183.8 103.4c.3.2.5.4.8.6-3.2-5.7-7.2-10.9-11.9-15.5C133 48.8 162.3 2.4 167.2.1V0c-32.1 18.8-42.9 53.5-44 70.9 1.5-.1 3-.2 4.5-.2 23.3.1 44.6 12.5 56.1 32.7z"/><radialGradient id="path988_1_" cx="-7886.291" cy="8580.425" r="126.73" gradientTransform="matrix(1 0 0 -1 7978.7 8787.996)" gradientUnits="userSpaceOnUse"><stop offset=".353" stop-color="#3a8ee6"/><stop offset=".472" stop-color="#5c79f0"/><stop offset=".669" stop-color="#9059ff"/><stop offset="1" stop-color="#c139e6"/></radialGradient><path id="path988" fill="url(#path988_1_)" d="M127.9 111.3c-.2 3.2-11.4 14.1-15.4 14.1-36.3 0-42.2 22-42.2 22 1.6 18.5 14.5 33.7 30.1 41.8.7.4 1.4.7 2.2 1 1.2.6 2.5 1.1 3.7 1.5 5.3 1.9 10.9 3 16.6 3.2 63.6 3 76-76.1 30-99 10.8-1.4 21.8 1.3 30.8 7.5-11.4-20.2-32.8-32.6-55.9-32.7-1.5 0-3 .1-4.5.2-12.8.9-25.1 5.6-35.1 13.5 1.9 1.6 4.1 3.8 8.8 8.4 8.6 8.6 30.8 17.5 30.9 18.5z"/><radialGradient id="path990_1_" cx="-7850.429" cy="8677.188" r="67.191" gradientTransform="matrix(.972 -.235 -.275 -1.138 10153.235 8146.025)" gradientUnits="userSpaceOnUse"><stop offset=".206" stop-color="#9059ff" stop-opacity="0"/><stop offset=".278" stop-color="#8c4ff3" stop-opacity=".064"/><stop offset=".747" stop-color="#7716a8" stop-opacity=".45"/><stop offset=".975" stop-color="#6e008b" stop-opacity=".6"/></radialGradient><path id="path990" fill="url(#path990_1_)" d="M127.9 111.3c-.2 3.2-11.4 14.1-15.4 14.1-36.3 0-42.2 22-42.2 22 1.6 18.5 14.5 33.7 30.1 41.8.7.4 1.4.7 2.2 1 1.2.6 2.5 1.1 3.7 1.5 5.3 1.9 10.9 3 16.6 3.2 63.6 3 76-76.1 30-99 10.8-1.4 21.8 1.3 30.8 7.5-11.4-20.2-32.8-32.6-55.9-32.7-1.5 0-3 .1-4.5.2-12.8.9-25.1 5.6-35.1 13.5 1.9 1.6 4.1 3.8 8.8 8.4 8.6 8.6 30.8 17.5 30.9 18.5z"/><radialGradient id="path992_1_" cx="-7860.211" cy="8769.649" r="91.169" gradientTransform="matrix(1 0 0 -1 7978.7 8787.996)" gradientUnits="userSpaceOnUse"><stop offset="0" stop-color="#ffe226"/><stop offset=".121" stop-color="#ffdb27"/><stop offset=".295" stop-color="#ffc82a"/><stop offset=".502" stop-color="#ffa930"/><stop offset=".732" stop-color="#ff7e37"/><stop offset=".792" stop-color="#ff7139"/></radialGradient><path id="path992" fill="url(#path992_1_)" d="M82.2 80.2c1 .7 1.9 1.2 2.6 1.7-2.9-10.2-3-21-.4-31.2-11.8 5.7-22.2 13.8-30.7 23.8.7 0 19.2-.3 28.5 5.7z"/><radialGradient id="path994_1_" cx="-7788.55" cy="8827.478" r="388.979" gradientTransform="matrix(1 0 0 -1 7978.7 8787.996)" gradientUnits="userSpaceOnUse"><stop offset=".113" stop-color="#fff44f"/><stop offset=".456" stop-color="#ff980e"/><stop offset=".622" stop-color="#ff5634"/><stop offset=".716" stop-color="#ff3647"/><stop offset=".904" stop-color="#e31587"/></radialGradient><path id="path994" fill="url(#path994_1_)" d="M1.2 138.9c9.9 58.2 62.6 102.7 122.5 104.4 55.4 1.6 90.9-30.6 105.5-62 12.4-27.1 13.8-58 4-86.2v-.2.2c4.5 29.6-10.5 58.2-34 77.6l-.1.2c-45.8 37.3-89.7 22.5-98.5 16.5-.6-.3-1.2-.6-1.9-.9-26.7-12.8-37.7-37.1-35.4-58-13 .2-24.8-7.3-30.2-19 14.3-8.7 32-9.4 46.9-1.9 15.1 6.9 32.3 7.5 47.9 1.9 0-1-22.3-9.9-30.9-18.4-4.6-4.6-6.8-6.8-8.8-8.4-1.1-.9-2.2-1.7-3.3-2.5-.8-.5-1.6-1.1-2.6-1.7-9.3-6.1-27.8-5.7-28.4-5.7h-.1c-5.1-6.4-4.7-27.6-4.4-32-1.5.6-2.9 1.4-4.3 2.3-4.5 3.2-8.6 6.8-12.5 10.7-4.4 4.4-8.4 9.2-12 14.3-8.2 11.6-14 24.8-17.1 38.7 0 0-4.6 19.8-2.3 30.1z"/><radialGradient id="path996_1_" cx="-7912.175" cy="8765.711" r="284.943" gradientTransform="matrix(.105 .995 .653 -.069 -4735.866 8459.594)" gradientUnits="userSpaceOnUse"><stop offset="0" stop-color="#fff44f"/><stop offset=".06" stop-color="#ffe847"/><stop offset=".168" stop-color="#ffc830"/><stop offset=".304" stop-color="#ff980e"/><stop offset=".356" stop-color="#ff8b16"/><stop offset=".455" stop-color="#ff672a"/><stop offset=".57" stop-color="#ff3647"/><stop offset=".737" stop-color="#e31587"/></radialGradient><path id="path996" fill="url(#path996_1_)" d="M172.7 88.5c4.7 4.6 8.7 9.8 11.9 15.5.7.5 1.4 1.1 1.9 1.6 28.9 26.7 13.8 64.4 12.6 67.1 23.5-19.4 38.5-48 34-77.6-14.4-36-38.9-50.5-58.9-82.1-1-1.6-2-3.2-3-4.9-.6-1-1-1.8-1.4-2.6-.8-1.6-1.5-3.3-1.9-5.1 0-.2-.1-.3-.3-.3h-.4c-4.9 2.3-34.2 48.7 5.5 88.4z"/><radialGradient id="path998_1_" cx="-7862.358" cy="8735.881" r="242.846" gradientTransform="matrix(1 0 0 -1 7978.7 8787.996)" gradientUnits="userSpaceOnUse"><stop offset=".137" stop-color="#fff44f"/><stop offset=".48" stop-color="#ff980e"/><stop offset=".592" stop-color="#ff5634"/><stop offset=".655" stop-color="#ff3647"/><stop offset=".904" stop-color="#e31587"/></radialGradient><path id="path998" fill="url(#path998_1_)" d="M186.5 105.5c-.6-.5-1.2-1-1.9-1.6-.3-.2-.5-.4-.8-.6-9-6.2-20-8.9-30.8-7.5 45.9 23 33.6 102-30 99-5.7-.2-11.3-1.3-16.6-3.2-1.2-.5-2.5-1-3.7-1.5-.7-.3-1.4-.7-2.2-1l.1.1c8.9 6.1 52.7 20.9 98.5-16.5l.1-.2c1-2.6 16.2-40.3-12.7-67z"/><radialGradient id="path1000_1_" cx="-7798.254" cy="8721.669" r="265.794" gradientTransform="matrix(1 0 0 -1 7978.7 8787.996)" gradientUnits="userSpaceOnUse"><stop offset=".094" stop-color="#fff44f"/><stop offset=".231" stop-color="#ffe141"/><stop offset=".509" stop-color="#ffaf1e"/><stop offset=".626" stop-color="#ff980e"/></radialGradient><path id="path1000" fill="url(#path1000_1_)" d="M70.3 147.4s5.9-22 42.2-22c3.9 0 15.2-11 15.4-14.1-15.6 5.7-32.8 5-47.9-1.9-14.9-7.6-32.7-6.9-46.9 1.9 5.4 11.8 17.3 19.2 30.2 19-2.4 20.9 8.7 45.2 35.4 58l1.8.9c-15.7-8.1-28.5-23.3-30.2-41.8z"/><linearGradient id="path1002_1_" gradientUnits="userSpaceOnUse" x1="222.638" y1="224.292" x2="42.296" y2="43.953" gradientTransform="matrix(1 0 0 -1 3.7 263.996)"><stop offset=".167" stop-color="#fff44f" stop-opacity=".8"/><stop offset=".266" stop-color="#fff44f" stop-opacity=".634"/><stop offset=".489" stop-color="#fff44f" stop-opacity=".217"/><stop offset=".6" stop-color="#fff44f" stop-opacity="0"/></linearGradient><path id="path1002" fill="url(#path1002_1_)" d="M245.8 88.4C240.3 75 229 60.6 220.2 56.1c6.3 12.2 10.6 25.2 12.9 38.8v.2c-14.4-36-38.9-50.5-58.9-82.1-1-1.6-2-3.2-3-4.9-.6-1-1-1.8-1.4-2.6-.8-1.6-1.5-3.3-1.9-5.1 0-.2-.1-.3-.3-.3h-.4V0c-32.1 18.8-42.9 53.5-44 70.9 1.5-.1 3-.2 4.5-.2 23.2 0 44.5 12.5 55.9 32.7-9-6.2-20-8.9-30.8-7.5 45.9 23 33.6 102-30 99-5.7-.2-11.3-1.3-16.6-3.2-1.2-.5-2.5-1-3.7-1.5-.7-.3-1.4-.7-2.2-1l.1.1c-.6-.3-1.2-.6-1.9-.9l1.8.9c-15.6-8.1-28.5-23.3-30.1-41.8 0 0 5.9-22 42.2-22 3.9 0 15.2-11 15.4-14.1 0-1-22.3-9.9-30.9-18.4-4.6-4.6-6.8-6.8-8.8-8.4-1.1-.9-2.2-1.7-3.3-2.5-2.9-10.2-3-21-.4-31.2-11.8 5.7-22.2 13.8-30.7 23.8h-.1c-5.1-6.4-4.7-27.6-4.4-32-1.5.6-2.9 1.4-4.3 2.3-4.5 3.2-8.6 6.8-12.5 10.7C28 60.1 24 64.9 20.5 70c-8.2 11.6-14 24.8-17.1 38.7l-.2.8c-.2 1.1-1.3 6.8-1.5 8.1 0 .1 0-.1 0 0-1 5.9-1.6 11.8-1.9 17.8v.7c.1 70.5 57.3 127.6 127.8 127.6 62.1-.1 115.2-44.8 125.7-106 .2-1.6.4-3.3.6-4.9 2.8-22 0-44.1-8.1-64.4zm-12.7 6.5v.1-.1z"/></svg>