<svg id="ff665c54-bcd7-4b4a-8aed-83d7be8fc53a" data-name="Layer 1" xmlns="http://www.w3.org/2000/svg" width="841.99" height="192.37"><defs><linearGradient id="be84ec44-bc76-41c7-8538-66e8ff15142b" x1="544.54" y1="160.34" x2="544.54" y2="37.87" gradientUnits="userSpaceOnUse"><stop offset="0" stop-color="#0f58b0"/><stop offset="1" stop-color="#1164ca"/></linearGradient><linearGradient id="ea477d67-a09a-4fce-8347-65b82949ab7b" x1="145.29" y1="180.31" x2="49.09" y2="13.69" gradientUnits="userSpaceOnUse"><stop offset="0" stop-color="#73b1fd"/><stop offset=".45" stop-color="#8abefe"/><stop offset=".46" stop-color="#8bbefe"/><stop offset=".6" stop-color="#a9cffe"/><stop offset=".74" stop-color="#bfdbfe"/><stop offset=".88" stop-color="#cce3fe"/><stop offset="1" stop-color="#d0e5fe"/></linearGradient><linearGradient id="e67bd496-f6ad-4137-8991-57da7f2c4828" x1="48.03" y1="14.3" x2="144.23" y2="180.92" gradientUnits="userSpaceOnUse"><stop offset="0" stop-color="#73b1fd"/><stop offset=".17" stop-color="#69acfd"/><stop offset=".44" stop-color="#4f9dfd"/><stop offset=".5" stop-color="#499afd"/><stop offset="1" stop-color="#2c8afc"/></linearGradient><linearGradient id="f4c14d8e-b7ad-41af-9418-4dabd6e93204" x1="29.18" y1="165.01" x2="165.2" y2="28.99" gradientUnits="userSpaceOnUse"><stop offset="0" stop-color="#157dfc"/><stop offset="1" stop-color="#1371e3"/></linearGradient></defs><path d="M249.45 57.11a10.58 10.58 0 01-3.36-8.11 10.3 10.3 0 013.36-8.06q3.36-3 9.08-3a13.09 13.09 0 019 3A10.17 10.17 0 01271 49a10.58 10.58 0 01-3.36 8.15q-3.36 3.11-9.07 3.11t-9.12-3.15zm1.6 100.29q-2.94-2.6-2.94-7.47V85.08q0-4.87 2.94-7.39a11.08 11.08 0 017.48-2.52 11.42 11.42 0 017.56 2.52q3 2.52 3 7.39v64.85q0 4.88-3 7.47a11.17 11.17 0 01-7.56 2.61 10.84 10.84 0 01-7.48-2.61zM360.5 83.23q7.23 8.4 7.23 25.37v41.33a9.82 9.82 0 01-2.78 7.39 10.5 10.5 0 01-7.64 2.69 10.82 10.82 0 01-7.73-2.69 9.67 9.67 0 01-2.85-7.39v-40.15c0-6.39-1.21-11-3.62-14s-6.19-4.37-11.34-4.37q-9.06 0-14.53 5.72t-5.46 15.28v37.47a9.67 9.67 0 01-2.85 7.39 10.86 10.86 0 01-7.73 2.73 10.54 10.54 0 01-7.65-2.69 9.85 9.85 0 01-2.77-7.39v-65a9.21 9.21 0 012.86-7 10.82 10.82 0 017.73-2.69 10 10 0 017.14 2.6 9 9 0 012.77 6.81v4.53a28.4 28.4 0 0111.25-10.58 34 34 0 0116-3.7q14.75-.06 21.97 8.34zm104.83-40.82a9 9 0 013 7.05v100.47a9.46 9.46 0 01-2.86 7.22 12 12 0 01-15.12 0 9.42 9.42 0 01-2.86-7.22v-4.2a26.34 26.34 0 01-10.66 10.75 32.3 32.3 0 01-15.83 3.86 34.06 34.06 0 01-18.9-5.37 35.69 35.69 0 01-12.94-15.21 52.51 52.51 0 01-4.62-22.59q0-12.76 4.62-22.35a33.95 33.95 0 0131.84-20 32.93 32.93 0 0115.79 3.7 25.72 25.72 0 0110.59 10.41v-39.8a8.92 8.92 0 012.77-6.81 10.5 10.5 0 017.47-2.6 11.2 11.2 0 017.71 2.69zm-23.27 94.75q5.46-6.89 5.46-19.66t-5.46-19.57q-5.46-6.8-15.37-6.8-10.08 0-15.62 6.72t-5.55 19.32q0 12.77 5.55 19.82t15.45 7.06q10.08 0 15.54-6.89zm63.34 17.98a36 36 0 01-14.7-15q-5.2-9.74-5.21-22.68t5.21-22.59A36.13 36.13 0 01505.4 80a49.43 49.43 0 0144.18 0 35.65 35.65 0 0114.62 14.91q5.12 9.66 5.12 22.59t-5.12 22.68a35.52 35.52 0 01-14.62 15q-9.5 5.21-22.09 5.2t-22.09-5.24zm37.6-17.81q5.37-6.72 5.37-19.83 0-12.93-5.37-19.74T527.49 91q-10.08 0-15.54 6.8t-5.46 19.74q0 13.11 5.38 19.83t15.45 6.72q10.24-.04 15.68-6.76zm113.35-54.1q7.21 8.4 7.22 25.37v41.33a9.81 9.81 0 01-2.77 7.39 10.53 10.53 0 01-7.64 2.69 10.82 10.82 0 01-7.73-2.69 9.64 9.64 0 01-2.86-7.39v-40.15c0-6.39-1.2-11-3.61-14s-6.19-4.37-11.34-4.37q-9.07 0-14.53 5.72t-5.46 15.28v37.47a9.68 9.68 0 01-2.86 7.39A10.82 10.82 0 01597 160a10.52 10.52 0 01-7.64-2.69 9.81 9.81 0 01-2.77-7.39v-65a9.24 9.24 0 012.85-7 10.84 10.84 0 017.73-2.69 10 10 0 017.14 2.6 8.92 8.92 0 012.77 6.81v4.53a28.36 28.36 0 0111.26-10.58 33.9 33.9 0 0116-3.7q14.78-.06 22.01 8.34zm98.19 55.44a9.08 9.08 0 011.77 5.88q0 5.22-6.22 8.74a55.71 55.71 0 01-12.94 5.12 53.15 53.15 0 01-13.77 1.93q-19.83 0-31.42-11.42t-11.59-31.25a47.91 47.91 0 015-22.34 36.57 36.57 0 0114.2-15.12 40.23 40.23 0 0120.74-5.38 37.29 37.29 0 0119.32 4.87 33 33 0 0112.77 13.78q4.54 8.91 4.54 21 0 7.23-6.39 7.22H701q1 11.6 6.56 17.06t16.12 5.46a30.51 30.51 0 009.5-1.35 91.76 91.76 0 009.32-3.69q5-2.69 7.39-2.69a5.66 5.66 0 014.65 2.18zM707.17 95q-5.17 5.38-6.17 15.45h38q-.33-10.24-5-15.54t-13.1-5.29q-8.6 0-13.73 5.38zM843 151.1a7.36 7.36 0 01-2.35 5.8q-2.35 2.1-7 2.1h-56.18a9.27 9.27 0 01-6.88-2.69 8.69 8.69 0 01-2.69-6.38 11.2 11.2 0 013-7.39l43.18-49.9h-37.45c-3.13 0-5.49-.67-7-2a7.31 7.31 0 01-2.36-5.88 7.33 7.33 0 012.36-5.88c1.56-1.34 3.92-2 7-2h54.27a9.45 9.45 0 017 2.6 8.81 8.81 0 012.6 6.47 11.17 11.17 0 01-2.85 7.39l-43.35 49.9h39.32q9.38-.03 9.38 7.86z" transform="translate(-1.01 -.82)" fill="url(#be84ec44-bc76-41c7-8538-66e8ff15142b)"/><path d="M97.19.82a96.21 96.21 0 00-82.31 146 67 67 0 1138.36 35.77A96.19 96.19 0 1097.19.82z" transform="translate(-1.01 -.82)" fill="url(#ea477d67-a09a-4fce-8347-65b82949ab7b)"/><path d="M192.07 81.17v2.16a67.08 67.08 0 11-24.47-51.8A96.17 96.17 0 10193.37 97a97.17 97.17 0 00-1.3-15.83z" transform="translate(-1.01 -.82)" fill="url(#e67bd496-f6ad-4137-8991-57da7f2c4828)"/><path d="M97.19.82a96.73 96.73 0 00-22.92 2.75 67.9 67.9 0 018-.47 66.84 66.84 0 11-51.94 24.77A96.17 96.17 0 1097.19.82z" transform="translate(-1.01 -.82)" fill="url(#f4c14d8e-b7ad-41af-9418-4dabd6e93204)"/></svg>